<svg width="22" height="22" viewBox="0 0 22 22" fill="none" xmlns="http://www.w3.org/2000/svg">
<path d="M9.48335 12.95L7.15419 10.6208C6.95558 10.4222 6.7028 10.3229 6.39585 10.3229C6.08891 10.3229 5.83613 10.4222 5.63752 10.6208C5.43891 10.8194 5.3396 11.0722 5.3396 11.3791C5.3396 11.6861 5.43891 11.9388 5.63752 12.1375L8.72502 15.225C8.94169 15.4416 9.19447 15.55 9.48335 15.55C9.77224 15.55 10.025 15.4416 10.2417 15.225L16.3625 9.10413C16.5611 8.90551 16.6604 8.65274 16.6604 8.34579C16.6604 8.03885 16.5611 7.78607 16.3625 7.58746C16.1639 7.38885 15.9111 7.28954 15.6042 7.28954C15.2972 7.28954 15.0445 7.38885 14.8459 7.58746L9.48335 12.95ZM11 21.8333C9.50141 21.8333 8.09308 21.5487 6.77502 20.9796C5.45697 20.4105 4.31044 19.6388 3.33544 18.6645C2.36044 17.6895 1.58874 16.543 1.02035 15.225C0.451965 13.9069 0.167409 12.4986 0.166687 11C0.166687 9.50135 0.451243 8.09302 1.02035 6.77496C1.58947 5.4569 2.36116 4.31038 3.33544 3.33538C4.31044 2.36038 5.45697 1.58868 6.77502 1.02029C8.09308 0.451904 9.50141 0.167348 11 0.166626C12.4986 0.166626 13.907 0.451182 15.225 1.02029C16.5431 1.5894 17.6896 2.3611 18.6646 3.33538C19.6396 4.31038 20.4117 5.4569 20.9808 6.77496C21.5499 8.09302 21.8341 9.50135 21.8334 11C21.8334 12.4986 21.5488 13.9069 20.9797 15.225C20.4106 16.543 19.6389 17.6895 18.6646 18.6645C17.6896 19.6395 16.5431 20.4116 15.225 20.9807C13.907 21.5498 12.4986 21.834 11 21.8333Z" fill="#1ACC2B"/>
</svg>
