<svg width="41" height="41" viewBox="0 0 41 41" fill="none" xmlns="http://www.w3.org/2000/svg">
<g clip-path="url(#clip0_0_113)">
<path d="M27.7315 4.61675H21.9149C21.1512 4.61675 20.5321 3.99766 20.5321 3.23396V2.02366C20.5321 1.25995 21.1512 0.640869 21.9149 0.640869H27.7315C28.4952 0.640869 29.1142 1.25995 29.1142 2.02366V3.23396C29.1142 3.99766 28.4952 4.61675 27.7315 4.61675Z" fill="#FFE27A"/>
<path d="M27.7315 3.17544H21.9149C21.1902 3.17544 20.5967 2.6177 20.538 1.9082C20.5348 1.9464 20.5321 1.98476 20.5321 2.02376V3.23406C20.5321 3.99776 21.1512 4.61685 21.9149 4.61685H27.7315C28.4952 4.61685 29.1142 3.99776 29.1142 3.23406V2.02376C29.1142 1.98476 29.1116 1.9464 29.1084 1.9082C29.0495 2.6177 28.4562 3.17544 27.7315 3.17544Z" fill="#F9CF58"/>
<path d="M35.3005 12.5931L37.0917 10.364C37.5388 9.80764 37.4502 8.99404 36.8938 8.54697L35.7518 7.62927C35.1955 7.18212 34.3819 7.27076 33.9348 7.82715L32.1116 10.0958C33.2853 10.7763 34.3585 11.6168 35.3005 12.5931Z" fill="#FF4755"/>
<path d="M24.8232 8.14286C25.5105 8.14286 26.1863 8.19155 26.8481 8.28372V4.61694H22.7982V8.28372C23.4691 8.19012 24.1457 8.14306 24.8232 8.14286Z" fill="#FFBA57"/>
<path d="M21.3922 13.1963L19.6765 12.9383C19.4717 11.8468 19.042 10.8099 18.4147 9.89345L19.4459 8.49737C19.5332 8.37914 19.5752 8.23349 19.5643 8.08691C19.5533 7.94033 19.4901 7.80254 19.3862 7.69859L18.498 6.81045C18.3941 6.70649 18.2563 6.64328 18.1097 6.63234C17.9631 6.62139 17.8175 6.66342 17.6993 6.75079L16.3032 7.78195C15.3867 7.15469 14.3498 6.72499 13.2583 6.52016L13.0004 4.80441C12.9785 4.65903 12.9052 4.52632 12.7938 4.43041C12.6824 4.33449 12.5403 4.28174 12.3933 4.28174H11.1373C10.9903 4.28174 10.8482 4.33449 10.7368 4.43041C10.6254 4.52632 10.5521 4.65903 10.5303 4.80441L10.2723 6.52016C9.18083 6.72497 8.14389 7.15468 7.22745 7.78195L5.83145 6.75079C5.71322 6.66345 5.56757 6.62144 5.42099 6.63239C5.27441 6.64334 5.13662 6.70652 5.03267 6.81045L4.1446 7.69851C4.04065 7.80244 3.97744 7.94023 3.96648 8.08681C3.95552 8.2334 3.99752 8.37906 4.08487 8.49729L5.11603 9.89337C4.48877 10.8098 4.05906 11.8468 3.85424 12.9383L2.13849 13.1962C1.99312 13.218 1.86042 13.2913 1.76451 13.4027C1.66861 13.5141 1.61588 13.6563 1.6159 13.8033V15.0592C1.61589 15.2062 1.66863 15.3483 1.76453 15.4597C1.86043 15.5711 1.99313 15.6444 2.13849 15.6663L3.85424 15.9242C4.05906 17.0157 4.48877 18.0527 5.11603 18.9691L4.08487 20.3652C3.99752 20.4834 3.95552 20.6291 3.96648 20.7757C3.97744 20.9223 4.04065 21.06 4.1446 21.164L5.03267 22.052C5.1366 22.156 5.27438 22.2192 5.42097 22.2302C5.56756 22.2411 5.71321 22.1991 5.83145 22.1118L7.22753 21.0806C8.14398 21.7079 9.18092 22.1376 10.2724 22.3424L10.5304 24.0582C10.5522 24.2035 10.6255 24.3362 10.7369 24.4321C10.8483 24.528 10.9904 24.5808 11.1374 24.5807H12.3934C12.5404 24.5807 12.6825 24.528 12.7939 24.4321C12.9053 24.3362 12.9786 24.2035 13.0004 24.0582L13.2584 22.3424C14.3499 22.1376 15.3868 21.7079 16.3033 21.0806L17.6993 22.1118C17.8176 22.1991 17.9632 22.2411 18.1098 22.2302C18.2564 22.2192 18.3942 22.156 18.4981 22.052L19.3863 21.164C19.4902 21.06 19.5534 20.9222 19.5644 20.7757C19.5753 20.6291 19.5333 20.4834 19.4459 20.3652L18.4148 18.9691C19.042 18.0527 19.4717 17.0157 19.6766 15.9242L21.3923 15.6663C21.5377 15.6444 21.6704 15.5712 21.7663 15.4597C21.8622 15.3483 21.9149 15.2062 21.9149 15.0592V13.8033C21.9149 13.6563 21.8621 13.5142 21.7662 13.4028C21.6703 13.2914 21.5376 13.2181 21.3922 13.1963ZM11.7654 18.3551C9.59832 18.3551 7.84157 16.5983 7.84157 14.4312C7.84157 12.2642 9.59832 10.5074 11.7654 10.5074C13.9325 10.5074 15.6892 12.2642 15.6892 14.4312C15.6892 16.5983 13.9324 18.3551 11.7654 18.3551Z" fill="#8BCAFF"/>
<path d="M15.6891 14.4315C15.6891 16.5986 13.9324 18.3553 11.7653 18.3553C10.9463 18.3563 10.1478 18.0998 9.48261 17.6221C9.0277 18.9963 8.76018 20.4255 8.68728 21.8713C9.1979 22.0828 9.7291 22.2408 10.2723 22.3427L10.5303 24.0584C10.5521 24.2038 10.6254 24.3365 10.7368 24.4324C10.8482 24.5283 10.9903 24.581 11.1373 24.581H12.3933C12.5403 24.581 12.6824 24.5283 12.7938 24.4324C12.9052 24.3365 12.9785 24.2038 13.0004 24.0584L13.2583 22.3427C14.3498 22.1378 15.3867 21.7081 16.3032 21.0809L17.6993 22.112C17.8175 22.1994 17.9632 22.2414 18.1097 22.2304C18.2563 22.2195 18.3941 22.1563 18.498 22.0523L19.3862 21.1642C19.4902 21.0603 19.5534 20.9225 19.5643 20.7759C19.5753 20.6293 19.5332 20.4837 19.4459 20.3655L18.4147 18.9694C19.0419 18.0529 19.4717 17.016 19.6765 15.9245L21.3922 15.6666C21.5376 15.6447 21.6703 15.5714 21.7662 15.46C21.8621 15.3486 21.9148 15.2065 21.9148 15.0595V13.8035C21.9148 13.6565 21.8621 13.5144 21.7662 13.403C21.6703 13.2916 21.5376 13.2183 21.3922 13.1965L19.6765 12.9385C19.4717 11.847 19.042 10.8101 18.4147 9.89365L19.4459 8.49756C19.5332 8.37933 19.5752 8.23369 19.5643 8.0871C19.5533 7.94052 19.4901 7.80273 19.3862 7.69879L19.2294 7.54199C17.1426 8.31218 15.2582 9.50054 13.6785 11.0059C14.8779 11.6772 15.6891 12.9593 15.6891 14.4315Z" fill="#60B8FF"/>
<path d="M24.8232 37.2648C32.865 37.2648 39.3842 30.7456 39.3842 22.7038C39.3842 14.662 32.865 8.14282 24.8232 8.14282C16.7814 8.14282 10.2622 14.662 10.2622 22.7038C10.2622 30.7456 16.7814 37.2648 24.8232 37.2648Z" fill="#FFE27A"/>
<path d="M24.8232 35.8235C17.023 35.8235 10.6558 29.6902 10.28 21.9832C10.2682 22.2232 10.2623 22.4635 10.2622 22.7039C10.2622 30.7457 16.7813 37.2649 24.8232 37.2649C32.865 37.2649 39.3842 30.7457 39.3842 22.7039C39.3842 22.4622 39.3779 22.2219 39.3663 21.9832C38.9906 29.6901 32.6233 35.8235 24.8232 35.8235Z" fill="#F9CF58"/>
<path d="M26.8481 6.67292C26.1847 6.58996 25.509 6.54688 24.8232 6.54688C24.1374 6.54688 23.4616 6.58996 22.7982 6.67292V8.28361C23.4692 8.19001 24.1458 8.14295 24.8232 8.14275C25.5105 8.14275 26.1863 8.19144 26.8481 8.28361V6.67292Z" fill="#FFAC3E"/>
<path d="M33.1217 8.83911L32.1116 10.0961C33.2853 10.7765 34.3586 11.617 35.3005 12.5933L36.3074 11.3403C35.3542 10.3768 34.2839 9.53648 33.1217 8.83911Z" fill="#FC2B3A"/>
<path d="M24.8232 33.9965C31.06 33.9965 36.1159 28.9406 36.1159 22.7038C36.1159 16.467 31.06 11.4111 24.8232 11.4111C18.5864 11.4111 13.5305 16.467 13.5305 22.7038C13.5305 28.9406 18.5864 33.9965 24.8232 33.9965Z" fill="#FFF5F5"/>
<path d="M24.8232 32.5551C18.8286 32.5551 13.9258 27.884 13.554 21.9832C13.5386 22.2231 13.5307 22.4634 13.5305 22.7039C13.5305 28.9407 18.5864 33.9966 24.8232 33.9966C31.06 33.9966 36.1159 28.9407 36.1159 22.7039C36.1159 22.4617 36.1074 22.2215 36.0923 21.9832C35.7205 27.884 30.8177 32.5551 24.8232 32.5551Z" fill="#EFE2DD"/>
<path d="M26.2005 23.3883C26.5802 22.6264 26.2704 21.701 25.5085 21.3213C24.7466 20.9416 23.8212 21.2514 23.4415 22.0133C23.0618 22.7752 23.3716 23.7006 24.1335 24.0803C24.8954 24.46 25.8208 24.1502 26.2005 23.3883Z" fill="#FF4755"/>
<path d="M24.8232 22.8038C24.2324 22.8038 23.7199 22.4711 23.4611 21.9832C23.3432 22.2051 23.2816 22.4526 23.2818 22.7039C23.2818 23.5551 23.9719 24.2452 24.8232 24.2452C25.6745 24.2452 26.3645 23.5551 26.3645 22.7039C26.3645 22.4434 26.2993 22.1983 26.1852 21.9832C25.9265 22.4711 25.4139 22.8038 24.8232 22.8038Z" fill="#FC2B3A"/>
<path d="M22.3526 29.9262L20.7803 29.6898C20.5926 28.6895 20.1988 27.7392 19.624 26.8994L20.569 25.62C20.6491 25.5116 20.6876 25.3781 20.6775 25.2438C20.6675 25.1094 20.6096 24.9832 20.5143 24.8879L19.7005 24.0741C19.6052 23.9788 19.479 23.9209 19.3446 23.9109C19.2103 23.9008 19.0768 23.9393 18.9684 24.0194L17.6891 24.9644C16.8492 24.3896 15.899 23.9958 14.8987 23.8081L14.6623 22.2358C14.6423 22.1026 14.5751 21.981 14.473 21.8931C14.371 21.8052 14.2407 21.7568 14.106 21.7568H12.955C12.8203 21.7568 12.6901 21.8052 12.588 21.8931C12.4859 21.981 12.4188 22.1026 12.3987 22.2358L12.1623 23.8081C11.1621 23.9958 10.2118 24.3896 9.37194 24.9644L8.09254 24.0194C7.98417 23.9393 7.85069 23.9008 7.71635 23.9109C7.58201 23.9209 7.45573 23.9788 7.36046 24.0741L6.54663 24.8879C6.45138 24.9832 6.39347 25.1094 6.38343 25.2438C6.3734 25.3781 6.4119 25.5116 6.49193 25.62L7.43694 26.8993C6.86213 27.7392 6.46835 28.6894 6.28061 29.6897L4.70827 29.9261C4.57506 29.9461 4.45345 30.0133 4.36556 30.1154C4.27767 30.2174 4.22933 30.3477 4.22933 30.4824V31.6334C4.22933 31.7681 4.27767 31.8983 4.36556 32.0004C4.45345 32.1025 4.57506 32.1696 4.70827 32.1897L6.28061 32.426C6.46828 33.4263 6.86207 34.3766 7.43694 35.2164L6.49193 36.4959C6.4119 36.6043 6.3734 36.7378 6.38343 36.8721C6.39347 37.0065 6.45138 37.1327 6.54663 37.228L7.36046 38.0418C7.45573 38.1371 7.58201 38.195 7.71635 38.205C7.85069 38.2151 7.98417 38.1766 8.09254 38.0965L9.37194 37.1515C10.2118 37.7263 11.1621 38.1201 12.1623 38.3079L12.3987 39.8802C12.4188 40.0134 12.4859 40.135 12.588 40.2229C12.6901 40.3108 12.8203 40.3591 12.955 40.3591H14.106C14.2407 40.3591 14.371 40.3108 14.473 40.2229C14.5751 40.135 14.6423 40.0134 14.6623 39.8802L14.8987 38.3079C15.899 38.1202 16.8493 37.7264 17.6891 37.1515L18.9684 38.0965C19.0768 38.1766 19.2103 38.2151 19.3446 38.205C19.479 38.195 19.6052 38.1371 19.7005 38.0418L20.5143 37.228C20.6096 37.1327 20.6675 37.0065 20.6775 36.8721C20.6876 36.7378 20.6491 36.6043 20.569 36.4959L19.624 35.2165C20.1988 34.3767 20.5926 33.4264 20.7803 32.4261L22.3526 32.1897C22.4858 32.1697 22.6074 32.1025 22.6953 32.0005C22.7832 31.8984 22.8315 31.7681 22.8316 31.6334V30.4825C22.8315 30.3478 22.7832 30.2175 22.6953 30.1154C22.6074 30.0134 22.4858 29.9462 22.3526 29.9262ZM13.5305 33.8098C12.0108 33.8098 10.7788 32.5778 10.7788 31.058C10.7788 29.5382 12.0108 28.3062 13.5305 28.3062C15.0503 28.3062 16.2823 29.5382 16.2823 31.058C16.2822 32.5777 15.0502 33.8098 13.5305 33.8098Z" fill="#FF4755"/>
<path d="M16.2822 32.4993C16.2822 32.2498 16.2484 32.0084 16.1862 31.7786C15.8694 32.9487 14.8007 33.8097 13.5304 33.8097C12.2601 33.8097 11.1915 32.9487 10.8746 31.7786C10.8109 32.0135 10.7786 32.2558 10.7786 32.4993C10.7786 34.019 12.0106 35.2511 13.5303 35.2511C15.0502 35.2511 16.2822 34.019 16.2822 32.4993Z" fill="#FC2B3A"/>
<path d="M24.8317 16.0474C24.7526 16.0474 24.6744 16.0629 24.6014 16.0932C24.5283 16.1234 24.462 16.1677 24.4061 16.2236C24.3502 16.2795 24.3059 16.3458 24.2757 16.4188C24.2454 16.4919 24.2299 16.5701 24.2299 16.6492V20.6483C23.3386 20.9092 22.6855 21.7336 22.6855 22.7081C22.6855 23.8915 23.6483 24.8543 24.8317 24.8543C26.0151 24.8543 26.9778 23.8915 26.9778 22.7081C26.9778 21.7336 26.3247 20.9092 25.4335 20.6483V16.6492C25.4335 16.5701 25.4179 16.4919 25.3877 16.4188C25.3574 16.3458 25.3131 16.2795 25.2572 16.2236C25.2013 16.1677 25.135 16.1234 25.062 16.0932C24.989 16.0629 24.9107 16.0474 24.8317 16.0474ZM25.7743 22.7081C25.7743 23.2278 25.3514 23.6507 24.8317 23.6507C24.312 23.6507 23.8891 23.2278 23.8891 22.7081C23.8891 22.1883 24.312 21.7654 24.8317 21.7654C25.3514 21.7654 25.7743 22.1882 25.7743 22.7081Z" fill="black"/>
<path d="M36.1207 12.5539L37.5934 10.7211C37.9108 10.3262 38.0554 9.83127 38.0005 9.32758C37.9457 8.82389 37.698 8.37169 37.303 8.05434L36.1586 7.1348C35.3435 6.47968 34.1471 6.61013 33.492 7.42524L31.9799 9.30692C30.5667 8.54941 29.0417 8.0222 27.4624 7.74516V5.1873H27.7456C28.8414 5.1873 29.7329 4.29579 29.7329 3.2V1.98722C29.733 0.89143 28.8415 0 27.7457 0H21.9176C20.8218 0 19.9304 0.89143 19.9304 1.98722V3.19992C19.9304 4.29571 20.8218 5.18722 21.9176 5.18722H22.2009V7.74516C21.5091 7.86658 20.8267 8.03625 20.1585 8.25293C20.2024 7.8933 20.0839 7.52222 19.8095 7.24787L18.9196 6.3578C18.4903 5.92874 17.8244 5.87902 17.3362 6.23961L16.2725 7.02525C15.5007 6.55062 14.6585 6.20157 13.7772 5.99113L13.5807 4.68393C13.4904 4.08366 12.9844 3.64796 12.3774 3.64796H11.1189C10.5119 3.64796 10.0058 4.08358 9.9156 4.68393L9.71908 5.99113C8.83781 6.20155 7.99554 6.55061 7.22377 7.02525L6.16009 6.23961C5.67201 5.87902 5.006 5.92858 4.57671 6.35796L3.6868 7.24787C3.2575 7.67717 3.20777 8.3431 3.56844 8.83134L4.35417 9.89501C3.87946 10.6668 3.5304 11.5091 3.32004 12.3904L2.01292 12.5868C1.41258 12.677 0.976873 13.1831 0.976873 13.7903V15.0487C0.976873 15.6556 1.4125 16.1617 2.01284 16.2521L3.32004 16.4485C3.53046 17.3298 3.87952 18.1721 4.35417 18.9439L3.56844 20.0076C3.20777 20.4958 3.2575 21.1618 3.6868 21.5911L4.57663 22.4809C5.006 22.9101 5.67194 22.9599 6.16001 22.5992L7.22369 21.8135C7.97287 22.2736 8.78852 22.6154 9.64189 22.8269C9.64517 23.2335 9.66415 23.6444 9.70043 24.0549C9.58987 24.1148 9.48074 24.1773 9.37315 24.2424L8.42558 23.5424C7.95793 23.1971 7.3201 23.2447 6.90906 23.6558L6.09363 24.4712C5.68242 24.8823 5.63478 25.5201 5.98024 25.9878L6.68012 26.9354C6.25719 27.6296 5.94412 28.385 5.75201 29.1748L4.58744 29.3498C4.01264 29.4363 3.59535 29.921 3.59535 30.5023V31.6555C3.59535 32.2369 4.01264 32.7216 4.58752 32.8081L5.75193 32.9831C5.94404 33.773 6.25711 34.5284 6.68004 35.2225L5.98024 36.17C5.6347 36.6376 5.68234 37.2753 6.09347 37.6867L6.90898 38.5021C7.3201 38.9132 7.95785 38.9608 8.4255 38.6154L9.37307 37.9155C10.0672 38.3384 10.8226 38.6515 11.6125 38.8436L11.7875 40.008C11.874 40.5829 12.3587 41.0002 12.94 41.0002H14.0932C14.6746 41.0002 15.1593 40.5829 15.2457 40.008L15.4207 38.8436C16.2106 38.6515 16.9659 38.3384 17.6601 37.9155L18.6077 38.6155C19.0753 38.9607 19.713 38.9131 20.1242 38.5021L20.9397 37.6866C21.0142 37.6121 21.0763 37.53 21.1268 37.443C22.3383 37.7467 23.5825 37.9001 24.8315 37.8998C27.4567 37.8998 30.0444 37.2193 32.315 35.9317C34.516 34.6835 36.3879 32.8883 37.7284 30.7402C37.7703 30.6732 37.7985 30.5986 37.8115 30.5206C37.8245 30.4427 37.822 30.363 37.8042 30.286C37.7864 30.209 37.7536 30.1363 37.7076 30.072C37.6617 30.0077 37.6036 29.953 37.5365 29.9112C37.4695 29.8693 37.3949 29.8411 37.3169 29.8281C37.239 29.8151 37.1593 29.8176 37.0823 29.8354C37.0053 29.8532 36.9326 29.886 36.8683 29.932C36.804 29.9779 36.7493 30.036 36.7075 30.103C35.4727 32.0816 33.7485 33.7352 31.7214 34.8847C29.6316 36.0698 27.2491 36.6962 24.8316 36.6962C23.5569 36.6968 22.2882 36.5235 21.0604 36.181C21.0578 36.1774 21.0557 36.1737 21.0531 36.1702L20.3531 35.2226C20.5929 34.8279 20.7977 34.4129 20.965 33.9824C22.2065 34.4088 23.5042 34.6251 24.8315 34.6251C31.4024 34.6251 36.7482 29.2793 36.7482 22.7084C36.7482 18.5653 34.6465 14.782 31.1262 12.588C30.9908 12.5055 30.8284 12.4798 30.6741 12.5165C30.5199 12.5531 30.3864 12.6491 30.3025 12.7837C30.2187 12.9182 30.1913 13.0804 30.2263 13.235C30.2614 13.3896 30.356 13.5241 30.4897 13.6094C31.0139 13.9362 31.5093 14.3071 31.9706 14.718L30.8773 15.8113C30.4152 16.2851 31.0369 17.2304 31.7284 16.6624L32.824 15.5668C34.4303 17.3571 35.3916 19.6465 35.527 22.1066H33.9834C33.651 22.1066 33.3816 22.376 33.3816 22.7084C33.3816 23.0408 33.651 23.3102 33.9834 23.3102H35.5273C35.3881 25.8116 34.3868 28.0864 32.8164 29.8422L31.7284 28.7542C31.6155 28.6414 31.4625 28.5779 31.3029 28.5779C31.1433 28.5779 30.9902 28.6414 30.8773 28.7542C30.7645 28.8671 30.7011 29.0201 30.7011 29.1797C30.7011 29.3394 30.7645 29.4924 30.8773 29.6053L31.9653 30.6933C30.2094 32.2638 27.9346 33.2651 25.4332 33.4043V31.8603C25.4332 31.5279 25.1638 31.2585 24.8314 31.2585C24.499 31.2585 24.2296 31.5279 24.2296 31.8603V33.4043C23.3445 33.356 22.4688 33.1973 21.623 32.9317L22.4455 32.8081C23.0205 32.7217 23.4377 32.237 23.4377 31.6555V30.5023C23.4377 29.9211 23.0205 29.4364 22.4457 29.3498L22.4455 29.3498L21.2812 29.1748C21.089 28.385 20.7759 27.6296 20.3531 26.9354L21.0531 25.9878C21.3984 25.52 21.3507 24.8823 20.9396 24.4712L20.1242 23.6559C19.7132 23.2448 19.0753 23.1971 18.6076 23.5424L17.66 24.2424C16.9659 23.8195 16.2105 23.5064 15.4206 23.3143L15.2457 22.15C15.1662 21.6209 14.749 21.2261 14.2298 21.1664C14.5304 19.0813 15.4379 17.1406 16.8427 15.5706L17.9345 16.6623C18.4065 17.173 19.3235 16.4557 18.7855 15.8113L17.6941 14.7199C19.5103 13.0955 21.8054 12.1475 24.2296 12.0124V13.5563C24.2296 13.8887 24.499 14.1581 24.8314 14.1581C25.1638 14.1581 25.4332 13.8887 25.4332 13.5563V12.0122C26.4637 12.0691 27.4729 12.2719 28.4409 12.6182C28.5908 12.6704 28.7552 12.6612 28.8984 12.5928C29.0416 12.5243 29.1519 12.402 29.2054 12.2526C29.2589 12.1031 29.2511 11.9386 29.1839 11.7948C29.1166 11.6511 28.9953 11.5397 28.8463 11.485C27.5601 11.0248 26.2093 10.7915 24.8314 10.7915C21.8227 10.7915 18.9499 11.9159 16.7425 13.9578C14.6844 15.8614 13.3739 18.4008 13.0155 21.1577H12.9399C12.3585 21.1577 11.8739 21.575 11.7874 22.1499L11.6124 23.3143C11.3609 23.376 11.1127 23.4501 10.8685 23.5361C10.852 23.2604 10.8437 22.9844 10.8435 22.7082C10.8435 14.9953 17.1185 8.72027 24.8314 8.72027C32.5445 8.72027 38.8194 14.9952 38.8194 22.7082C38.8194 24.5588 38.464 26.3563 37.7629 28.0511C37.7251 28.1425 37.7104 28.2419 37.7201 28.3403C37.7298 28.4388 37.7636 28.5333 37.8186 28.6156C37.8736 28.6979 37.948 28.7653 38.0352 28.8119C38.1225 28.8586 38.2199 28.883 38.3188 28.883C38.5551 28.883 38.7793 28.7429 38.8751 28.511C39.6368 26.6696 40.023 24.7173 40.023 22.7082C40.0231 18.808 38.5452 15.2467 36.1207 12.5539ZM12.2568 24.4061C12.3797 24.3831 12.4923 24.3224 12.579 24.2325C12.6658 24.1425 12.7224 24.0278 12.741 23.9042L12.973 22.3612H14.0606L14.2926 23.9042C14.3111 24.0278 14.3677 24.1425 14.4545 24.2325C14.5413 24.3224 14.6539 24.3831 14.7767 24.4061C15.7015 24.5796 16.5652 24.9376 17.3439 25.47C17.447 25.5406 17.5696 25.5773 17.6945 25.575C17.8195 25.5727 17.9406 25.5316 18.0411 25.4573L19.2966 24.5299L20.0657 25.2991L19.1383 26.5545C19.064 26.6551 19.0229 26.7762 19.0207 26.9011C19.0184 27.0261 19.055 27.1486 19.1255 27.2518C19.6581 28.0305 20.016 28.8943 20.1894 29.8189C20.2124 29.9418 20.2731 30.0544 20.3631 30.1412C20.4531 30.2279 20.5679 30.2845 20.6915 30.3031L22.2344 30.5349V31.6226L20.6914 31.8545C20.5678 31.8731 20.4531 31.9297 20.3631 32.0165C20.2731 32.1032 20.2124 32.2158 20.1894 32.3387C20.016 33.2633 19.6581 34.1271 19.1255 34.9058C19.055 35.009 19.0183 35.1315 19.0206 35.2565C19.0229 35.3814 19.064 35.5025 19.1383 35.6031L20.0657 36.8585L19.2966 37.6277L18.0411 36.7003C17.9406 36.626 17.8195 36.5849 17.6945 36.5826C17.5696 36.5803 17.447 36.617 17.3439 36.6876C16.5652 37.22 15.7015 37.5779 14.7767 37.7515C14.6539 37.7745 14.5413 37.8352 14.4546 37.9252C14.3678 38.0151 14.3112 38.1298 14.2926 38.2534L14.0606 39.7963H12.973L12.741 38.2534C12.7224 38.1298 12.6658 38.0151 12.579 37.9251C12.4923 37.8352 12.3797 37.7745 12.2568 37.7515C11.332 37.5779 10.4683 37.22 9.68969 36.6876C9.58655 36.617 9.46399 36.5803 9.33904 36.5826C9.21409 36.5849 9.09295 36.626 8.99245 36.7003L7.73699 37.6277L6.96792 36.8585L7.8953 35.6031C7.96954 35.5025 8.01065 35.3814 8.01292 35.2565C8.01518 35.1315 7.9785 35.009 7.90796 34.9058C7.37552 34.1271 7.01757 33.2634 6.84412 32.3387C6.82109 32.2158 6.76038 32.1032 6.67041 32.0164C6.58045 31.9297 6.4657 31.8731 6.34211 31.8545L4.79908 31.6226V30.5349L6.34211 30.3031C6.4657 30.2845 6.58044 30.2279 6.6704 30.1411C6.76036 30.0544 6.82108 29.9418 6.84412 29.8189C7.01757 28.8942 7.37552 28.0305 7.90796 27.2518C7.97848 27.1486 8.01515 27.0261 8.01288 26.9011C8.01061 26.7762 7.96952 26.6551 7.8953 26.5545L6.96784 25.2991L7.73691 24.5299L8.99237 25.4573C9.09291 25.5315 9.21404 25.5726 9.33896 25.5749C9.46389 25.5772 9.58644 25.5405 9.68961 25.47C10.4684 24.9376 11.332 24.5796 12.2568 24.4061ZM21.1339 3.19992V1.98722C21.1339 1.55512 21.4854 1.20349 21.9176 1.20349H27.7457C28.1779 1.20349 28.5295 1.55504 28.5295 1.98722V3.19992C28.5295 3.6321 28.1779 3.98373 27.7457 3.98373H21.9176C21.4854 3.98373 21.1339 3.63218 21.1339 3.19992ZM6.8438 20.5979L5.44499 21.6311C5.44241 21.633 5.43925 21.6338 5.43608 21.6336C5.43291 21.6333 5.42994 21.6319 5.4277 21.6297L4.53787 20.7398C4.53559 20.7376 4.5342 20.7346 4.53397 20.7314C4.53373 20.7282 4.53466 20.7251 4.53659 20.7225L5.56983 19.3237C5.64406 19.2232 5.68517 19.1021 5.68745 18.9771C5.68973 18.8522 5.65308 18.7297 5.58257 18.6265C4.9972 17.7704 4.60369 16.8209 4.41303 15.8043C4.38998 15.6815 4.32927 15.5688 4.23931 15.4821C4.14935 15.3953 4.03461 15.3387 3.91102 15.3201L2.1919 15.0618C2.18874 15.0613 2.18585 15.0597 2.18376 15.0573C2.18168 15.0549 2.18053 15.0518 2.18053 15.0486V13.7903C2.18053 13.7837 2.18541 13.778 2.19182 13.7771L3.91102 13.5187C4.0346 13.5001 4.14933 13.4435 4.23928 13.3567C4.32924 13.27 4.38996 13.1574 4.41303 13.0346C4.60369 12.0179 4.9972 11.0684 5.58257 10.2124C5.6531 10.1092 5.68978 9.98668 5.6875 9.86175C5.68521 9.73682 5.64409 9.6157 5.56983 9.5152L4.53659 8.1164C4.53467 8.11383 4.53375 8.11066 4.53398 8.10747C4.53422 8.10428 4.5356 8.10128 4.53787 8.09902L5.42762 7.20927C5.42985 7.20698 5.43285 7.20557 5.43605 7.20532C5.43925 7.20507 5.44242 7.20599 5.44499 7.20791L6.8438 8.24108C6.9443 8.31531 7.06542 8.35642 7.19035 8.35871C7.31527 8.36099 7.43781 8.32433 7.54096 8.25381C8.39723 7.66844 9.34672 7.27494 10.3632 7.08427C10.486 7.06126 10.5986 7.00056 10.6854 6.91061C10.7721 6.82066 10.8287 6.70593 10.8473 6.58234L11.1057 4.86314C11.1062 4.85998 11.1078 4.8571 11.1102 4.85501C11.1126 4.85292 11.1157 4.85178 11.1189 4.85177H12.3774C12.384 4.85177 12.3895 4.85658 12.3906 4.86314L12.649 6.58234C12.6676 6.70593 12.7242 6.82066 12.8109 6.91061C12.8977 7.00056 13.0103 7.06126 13.1331 7.08427C14.1496 7.27494 15.0991 7.66844 15.9553 8.25381C16.0585 8.32436 16.181 8.36104 16.3059 8.35876C16.4309 8.35648 16.552 8.31535 16.6525 8.24108L18.0512 7.20783C18.0538 7.20591 18.0569 7.20497 18.0601 7.20519C18.0633 7.20541 18.0663 7.20678 18.0686 7.20903L18.9584 8.09902C18.9631 8.10375 18.9637 8.11103 18.9597 8.11632L18.3172 8.98621C17.0957 9.56877 15.9574 10.3114 14.9321 11.1946C14.0884 10.3574 12.9592 9.8862 11.748 9.8862C10.2923 9.8862 8.91534 10.5927 8.06475 11.7763C8.01862 11.8404 7.98558 11.9131 7.96752 11.99C7.94946 12.0669 7.94674 12.1467 7.9595 12.2246C7.97226 12.3026 8.00026 12.3773 8.04189 12.4445C8.08353 12.5117 8.13799 12.57 8.20216 12.6161C8.30428 12.6897 8.427 12.7293 8.55291 12.7293C8.64849 12.7294 8.74274 12.7068 8.82781 12.6632C8.91288 12.6196 8.98632 12.5563 9.04202 12.4787C9.66719 11.609 10.6787 11.0897 11.7481 11.0897C12.6206 11.0897 13.4352 11.4227 14.0511 12.0158C12.516 13.5635 11.3107 15.4386 10.5509 17.5261C9.28938 17.0384 8.41837 15.8057 8.41837 14.4195C8.41837 14.2599 8.35497 14.1068 8.24212 13.994C8.12926 13.8811 7.97619 13.8177 7.81659 13.8177C7.65698 13.8177 7.50392 13.8811 7.39106 13.994C7.2782 14.1068 7.2148 14.2599 7.2148 14.4195C7.2148 16.3306 8.43143 18.0277 10.1849 18.6741C9.92179 19.6282 9.75311 20.6058 9.68129 21.5929C8.91831 21.3742 8.19558 21.0339 7.54096 20.5851C7.43783 20.5146 7.31528 20.4779 7.19034 20.4801C7.0654 20.4824 6.94428 20.5236 6.8438 20.5979ZM23.4045 7.5842V5.1873H26.2589V7.5842C25.7888 7.54016 25.313 7.51661 24.8317 7.51661C24.3503 7.51661 23.8745 7.54016 23.4045 7.5842ZM33.0289 9.9232L34.4302 8.17918C34.6697 7.88137 35.1071 7.83356 35.4049 8.073L36.5493 8.99245C36.6204 9.04933 36.6796 9.11974 36.7233 9.19963C36.7671 9.27952 36.7946 9.36729 36.8042 9.45787C36.8143 9.54837 36.8064 9.63998 36.7808 9.72739C36.7553 9.8148 36.7126 9.89627 36.6554 9.96708L35.2746 11.6854C34.5825 11.0293 33.8307 10.4394 33.0289 9.9232Z" fill="black"/>
<path d="M13.5167 34.4377C15.3689 34.4377 16.8757 32.9309 16.8757 31.0787C16.8757 29.2265 15.3688 27.7197 13.5167 27.7197C11.6646 27.7197 10.1578 29.2265 10.1578 31.0787C10.1578 32.9308 11.6646 34.4377 13.5167 34.4377ZM11.3612 31.0787C11.3612 30.7412 11.4394 30.4216 11.5783 30.1369C12.2041 31.2526 12.9689 32.2844 13.8544 33.2076C13.7427 33.2253 13.6298 33.2342 13.5167 33.2342C12.3282 33.2341 11.3612 32.2672 11.3612 31.0787ZM15.6722 31.0787C15.6722 31.6967 15.4103 32.2545 14.9922 32.6478C13.9668 31.6339 13.1124 30.481 12.4445 29.2101C12.7705 29.0219 13.1403 28.923 13.5167 28.9233C14.7052 28.9233 15.6722 29.8902 15.6722 31.0787Z" fill="black"/>
</g>
<defs>
<clipPath id="clip0_0_113">
<rect width="41" height="41" fill="white"/>
</clipPath>
</defs>
</svg>
