<svg width="43" height="43" viewBox="0 0 43 43" fill="none" xmlns="http://www.w3.org/2000/svg">
<path d="M13.8741 33.9812H20.1156C20.4835 33.9812 20.8363 34.1274 21.0964 34.3875C21.3565 34.6476 21.5026 35.0004 21.5026 35.3682V40.9163C21.5026 41.2841 21.3565 41.6369 21.0964 41.897C20.8363 42.1571 20.4835 42.3033 20.1156 42.3033H2.08455C1.71669 42.3033 1.3639 42.1571 1.10378 41.897C0.843671 41.6369 0.69754 41.2841 0.69754 40.9163V35.3682C0.69754 35.0004 0.843671 34.6476 1.10378 34.3875C1.3639 34.1274 1.71669 33.9812 2.08455 33.9812H8.32607L11.1001 29.1267L13.8741 33.9812Z" fill="#F0AE42"/>
<path d="M2.08455 33.9812C1.71669 33.9812 1.3639 34.1274 1.10378 34.3875C0.843671 34.6476 0.69754 35.0004 0.69754 35.3682V40.9163L0.883399 41.1021H16.6481C17.016 41.1021 17.3687 40.956 17.6289 40.6959C17.889 40.4358 18.0351 40.083 18.0351 39.7151V33.9812H13.8741L11.1001 29.1267L8.32607 33.9812H2.08455Z" fill="#F9D266"/>
<path d="M25.0391 25.0352C23.9813 26.7164 22.5593 28.1384 20.8781 29.1962L33.1232 41.4414C33.675 41.9932 34.4234 42.3033 35.2037 42.3034C35.5902 42.3035 35.9729 42.2274 36.3299 42.0796C36.6869 41.9317 37.0114 41.715 37.2846 41.4417C37.5579 41.1685 37.7746 40.8441 37.9225 40.487C38.0703 40.13 38.1464 39.7473 38.1463 39.3608C38.1462 38.5805 37.8361 37.8321 37.2842 37.2803L25.0391 25.0352Z" fill="#5E87CA"/>
<path d="M34.5102 37.2807L23.8456 26.616C22.9905 27.6192 21.9903 28.489 20.8781 29.1965L33.1232 41.4417C33.3288 41.641 33.5624 41.8093 33.8167 41.941C34.2216 41.7261 34.5703 41.4191 34.8348 41.0448C35.0994 40.6704 35.2723 40.2392 35.3398 39.7859C35.4073 39.3325 35.3673 38.8696 35.2233 38.4345C35.0792 37.9994 34.8349 37.6042 34.5102 37.2807Z" fill="#78A0D4"/>
<path d="M19.4217 11.7892V8.88824C19.4218 8.06654 19.1785 7.26322 18.7227 6.57957L18.0347 5.54763L17.1103 6.24114C15.9099 7.14146 14.4498 7.62814 12.9493 7.62814H11.0997C10.364 7.62814 9.6584 7.9204 9.13818 8.44063C8.61795 8.96086 8.32569 9.66644 8.32569 10.4022V11.7892L7.4595 10.6345C6.67113 9.58331 6.24503 8.30477 6.24518 6.99081C6.24548 5.92058 6.52863 4.86943 7.06595 3.94386C7.60327 3.01828 8.37567 2.25116 9.30491 1.72019C10.481 1.04759 11.8122 0.693563 13.167 0.693115H14.5804C15.9351 0.693141 17.2663 1.04669 18.4425 1.71881C19.3719 2.24988 20.1445 3.01723 20.6818 3.94307C21.2191 4.86891 21.5022 5.92034 21.5022 6.99081C21.5024 8.30477 21.0763 9.58331 20.2879 10.6345L19.4217 11.7892Z" fill="#C18E59"/>
<path d="M21.4957 7.28149C23.7764 8.89843 25.4838 11.1989 26.3708 13.8502C27.2578 16.5015 27.2786 19.3663 26.43 22.0302C25.5814 24.694 23.9075 27.019 21.6504 28.6687C19.3932 30.3185 16.6699 31.2075 13.8741 31.2073C13.3249 31.2073 12.7762 31.1735 12.2312 31.1061L11.1001 29.1268L10.2068 30.69C7.82586 29.9995 5.6879 28.6514 4.03848 26.8006C2.38906 24.9499 1.29507 22.6714 0.882129 20.2269C0.46919 17.7825 0.75405 15.2711 1.704 12.9812C2.65394 10.6914 4.23045 8.71582 6.25249 7.28149C6.31022 8.49507 6.73083 9.66339 7.45988 10.6353L7.92592 11.2594C6.54851 12.4688 5.57243 14.0692 5.12781 15.8474C4.68319 17.6256 4.79115 19.4971 5.43729 21.2124C6.08343 22.9277 7.23706 24.4053 8.74439 25.4482C10.2517 26.4911 12.0411 27.0498 13.8741 27.0498C15.707 27.0498 17.4965 26.4911 19.0038 25.4482C20.5111 24.4053 21.6647 22.9277 22.3109 21.2124C22.957 19.4971 23.065 17.6256 22.6204 15.8474C22.1757 14.0692 21.1997 12.4688 19.8223 11.2594L20.2883 10.6353C21.0174 9.66339 21.438 8.49507 21.4957 7.28149Z" fill="#4C6CB5"/>
<path d="M19.8217 11.2561C21.1991 12.4654 22.1752 14.0659 22.6198 15.8441C23.0645 17.6223 22.9565 19.4938 22.3104 21.2091C21.6642 22.9244 20.5106 24.402 19.0033 25.4449C17.4959 26.4878 15.7065 27.0465 13.8736 27.0465C12.0406 27.0465 10.2512 26.4878 8.74387 25.4449C7.23654 24.402 6.08291 22.9244 5.43677 21.2091C4.79063 19.4938 4.68267 17.6223 5.12729 15.8441C5.57191 14.0659 6.54799 12.4654 7.9254 11.2561L8.32555 11.7894C8.32555 13.2608 8.91007 14.672 9.95053 15.7125C10.991 16.7529 12.4021 17.3374 13.8736 17.3374C15.345 17.3374 16.7562 16.7529 17.7966 15.7125C18.8371 14.672 19.4216 13.2608 19.4216 11.7894L19.8217 11.2561Z" fill="#E2E7F6"/>
<path d="M15.9543 16.9336V20.1112C15.3383 20.5223 14.6143 20.7416 13.8738 20.7416C13.1332 20.7416 12.4093 20.5223 11.7933 20.1112V16.9336C12.4543 17.201 13.1607 17.338 13.8738 17.3372C14.5868 17.338 15.2933 17.201 15.9543 16.9336Z" fill="#F2B9A1"/>
<path d="M21.4866 22.8627C20.6731 24.1454 19.5486 25.2017 18.2176 25.9337C16.8867 26.6656 15.3923 27.0494 13.8734 27.0494C12.3544 27.0494 10.8601 26.6656 9.52912 25.9337C8.19815 25.2017 7.07368 24.1454 6.2601 22.8627C6.69845 22.212 7.26485 21.6574 7.92471 21.2329C8.58457 20.8085 9.32404 20.5229 10.0979 20.3938L11.7929 20.1116C12.4089 20.5226 13.1328 20.742 13.8734 20.742C14.6139 20.742 15.3379 20.5226 15.9539 20.1116L17.6488 20.3938C18.4227 20.5229 19.1622 20.8085 19.822 21.2329C20.4819 21.6574 21.0483 22.212 21.4866 22.8627Z" fill="#B52F28"/>
<path d="M19.4222 11.7894V8.88845C19.4222 8.06676 19.179 7.26344 18.7231 6.57978L18.0351 5.54785L17.1107 6.24135C15.9103 7.14167 14.4502 7.62836 12.9497 7.62836H11.1001C10.3644 7.62836 9.65883 7.92062 9.1386 8.44085C8.61837 8.96108 8.32611 9.66666 8.32611 10.4024V11.7894C8.32611 13.2608 8.91063 14.672 9.95109 15.7124C10.9915 16.7529 12.4027 17.3374 13.8741 17.3374C15.3456 17.3374 16.7567 16.7529 17.7972 15.7124C18.8376 14.672 19.4222 13.2608 19.4222 11.7894Z" fill="#F7D2B7"/>
<path d="M36.7593 8.32165L40.2268 4.85413H36.0658L33.9853 0.693115L31.9048 4.85413L27.7438 4.85344L31.2113 8.32165L29.8243 13.1762L33.9853 9.70865L38.1463 13.1762L36.7593 8.32165ZM38.8398 22.1917L42.3073 18.7242H38.1463L36.0658 14.5632L33.9853 18.7242L29.8243 18.7235L33.2918 22.1917L31.9048 27.0462L36.0658 23.5787L40.2268 27.0462L38.8398 22.1917Z" fill="#F9D266"/>
<path d="M2.77802 38.8358H19.4221V40.2228H2.77802V38.8358ZM4.16502 36.0618H18.0351V37.4488H4.16502V36.0618Z" fill="#FCE797"/>
<path d="M18.7279 20.6865C18.3784 20.5545 18.0171 20.4565 17.6488 20.3938L15.9539 20.1116C15.3378 20.5224 14.6139 20.7417 13.8734 20.7417C13.1329 20.7417 12.4089 20.5224 11.7929 20.1116L10.0986 20.3938C9.32461 20.5228 8.58501 20.8083 7.92502 21.2328C7.26504 21.6573 6.69853 22.2119 6.2601 22.8627C6.77264 23.6576 7.40655 24.3674 8.1388 24.9661H17.3409C17.7087 24.9661 18.0615 24.82 18.3216 24.5598C18.5818 24.2997 18.7279 23.9469 18.7279 23.5791V20.6865Z" fill="#D23F34"/>
<path d="M25.8977 24.9141C27.5862 21.9834 28.1415 18.5354 27.4585 15.2228C26.7755 11.9102 24.9016 8.96299 22.1916 6.93919C22.1817 5.75596 21.8621 4.59597 21.2647 3.57457C20.6673 2.55318 19.8129 1.70598 18.7865 1.11723C17.5054 0.38567 16.0557 0.00060561 14.5804 0H13.1664C11.6911 0.00060561 10.2414 0.38567 8.9603 1.11723C7.93344 1.70575 7.07852 2.55281 6.48054 3.57419C5.88255 4.59557 5.56234 5.75568 5.55174 6.93919C3.54779 8.43993 1.98777 10.4555 1.0374 12.7717C0.0870287 15.0879 -0.218202 17.6182 0.154133 20.094C0.526468 22.5698 1.56246 24.8984 3.15206 26.8327C4.74167 28.7669 6.82551 30.2344 9.18222 31.0793L7.92282 33.2881H2.08422C1.53244 33.2881 1.00325 33.5073 0.613082 33.8975C0.222911 34.2877 0.0037155 34.8169 0.0037155 35.3686V40.9167C0.0037155 41.4684 0.222911 41.9976 0.613082 42.3878C1.00325 42.778 1.53244 42.9972 2.08422 42.9972H20.1153C20.6671 42.9972 21.1963 42.778 21.5864 42.3878C21.9766 41.9976 22.1958 41.4684 22.1958 40.9167V35.3686C22.1958 34.8169 21.9766 34.2877 21.5864 33.8975C21.1963 33.5073 20.6671 33.2881 20.1153 33.2881H14.276L13.4764 31.8886C13.6089 31.8928 13.7413 31.9011 13.8738 31.9011C16.2903 31.901 18.6643 31.2645 20.7568 30.0557L32.633 41.9319C33.3148 42.6138 34.2396 42.9968 35.2038 42.9968C36.1681 42.9968 37.0928 42.6138 37.7746 41.9319C38.4565 41.2501 38.8395 40.3254 38.8395 39.3611C38.8395 38.3969 38.4565 37.4721 37.7746 36.7903L25.8977 24.9141ZM9.64826 2.32115C10.72 1.70964 11.9325 1.3877 13.1664 1.38701H14.5804C15.8144 1.3877 17.0269 1.70964 18.0986 2.32115C19.3319 3.02147 20.2369 4.18251 20.615 5.54941C20.9931 6.91632 20.8134 8.3774 20.1153 9.61195V8.88862C20.1162 7.92992 19.8326 6.99251 19.3004 6.19506L18.6118 5.16313C18.5594 5.08468 18.4917 5.01772 18.4126 4.96636C18.3335 4.915 18.2448 4.8803 18.1518 4.8644C18.0589 4.8485 17.9636 4.85172 17.872 4.87387C17.7803 4.89602 17.6941 4.93663 17.6187 4.99322L16.6936 5.68672C15.6121 6.495 14.2988 6.93279 12.9486 6.93503H11.0998C10.2991 6.93643 9.52354 7.21442 8.9043 7.72194C8.28506 8.22946 7.86019 8.93535 7.7016 9.72013C7.33416 9.10898 7.09285 8.43042 6.99191 7.72449C6.89097 7.01857 6.93245 6.29957 7.11389 5.60994C7.29534 4.9203 7.61307 4.27399 8.04835 3.70914C8.48362 3.14429 9.02763 2.67235 9.64826 2.32115ZM11.0998 17.3722V19.5221L9.9853 19.708C8.60831 19.9414 7.3435 20.6132 6.37909 21.6234C5.66207 20.1442 5.40222 18.4849 5.63272 16.8573C5.86322 15.2297 6.57361 13.7078 7.67316 12.4858C7.79147 13.5215 8.16695 14.5111 8.76544 15.3645C9.36392 16.218 10.1664 16.9082 11.0998 17.3722ZM12.4868 17.8702C13.399 18.0847 14.3485 18.0847 15.2608 17.8702V19.7163C14.8313 19.9355 14.356 20.0497 13.8738 20.0497C13.3916 20.0497 12.9163 19.9355 12.4868 19.7163V17.8702ZM13.8738 16.6441C12.5867 16.6426 11.3528 16.1307 10.4427 15.2206C9.53265 14.3105 9.02072 13.0766 9.01925 11.7895V10.4025C9.01925 9.85075 9.23845 9.32157 9.62862 8.9314C10.0188 8.54123 10.548 8.32203 11.0998 8.32203H12.9493C14.5994 8.3186 16.2044 7.7836 17.5264 6.79633L17.8642 6.5425L18.1457 6.96415C18.526 7.53392 18.7287 8.20364 18.7283 8.88862V11.7895C18.7268 13.0766 18.2149 14.3105 17.3048 15.2206C16.3947 16.1307 15.1608 16.6426 13.8738 16.6441ZM10.2121 21.0783L11.6684 20.8356C12.3365 21.2297 13.0981 21.4376 13.8738 21.4376C14.6495 21.4376 15.411 21.2297 16.0791 20.8356L17.5355 21.0783C18.7495 21.2831 19.8484 21.9204 20.6292 22.8724C19.8619 23.9489 18.8486 24.8264 17.6735 25.4319C16.4984 26.0373 15.1957 26.3532 13.8738 26.3532C12.5519 26.3532 11.2491 26.0373 10.074 25.4319C8.89896 24.8264 7.88559 23.9489 7.11836 22.8724C7.89932 21.9207 8.99813 21.2834 10.2121 21.0783ZM21.3671 21.6255C20.4027 20.6152 19.1379 19.9433 17.7609 19.71L16.6478 19.5242V17.3743C17.5809 16.9105 18.3832 16.2207 18.9816 15.3676C19.5799 14.5145 19.9554 13.5253 20.0737 12.49C21.1732 13.7119 21.8836 15.2339 22.1141 16.8614C22.3446 18.489 22.0848 20.1484 21.3678 21.6276L21.3671 21.6255ZM20.1153 34.6751C20.2992 34.6751 20.4756 34.7482 20.6057 34.8783C20.7357 35.0083 20.8088 35.1847 20.8088 35.3686V40.9167C20.8088 41.1006 20.7357 41.277 20.6057 41.407C20.4756 41.5371 20.2992 41.6102 20.1153 41.6102H2.08422C1.9003 41.6102 1.7239 41.5371 1.59384 41.407C1.46379 41.277 1.39072 41.1006 1.39072 40.9167V35.3686C1.39072 35.1847 1.46379 35.0083 1.59384 34.8783C1.7239 34.7482 1.9003 34.6751 2.08422 34.6751H8.32575C8.44771 34.6754 8.56759 34.6434 8.67327 34.5826C8.77896 34.5217 8.86672 34.434 8.92771 34.3284L11.0998 30.5252L13.2718 34.3256C13.3324 34.4318 13.42 34.52 13.5258 34.5814C13.6315 34.6427 13.7515 34.6751 13.8738 34.6751H20.1153ZM12.6532 30.4489L11.701 28.7845C11.6353 28.6849 11.5459 28.6032 11.4409 28.5467C11.3358 28.4902 11.2184 28.4606 11.0991 28.4606C10.9798 28.4606 10.8623 28.4902 10.7573 28.5467C10.6522 28.6032 10.5628 28.6849 10.4971 28.7845L9.88613 29.8539C7.79719 29.1518 5.93163 27.9086 4.47943 26.251C3.02722 24.5934 2.04024 22.5805 1.61901 20.4174C1.19777 18.2542 1.35731 16.0181 2.08139 13.9367C2.80547 11.8552 4.06823 10.0029 5.74106 8.56822C5.95665 9.46614 6.35257 10.3108 6.90476 11.051L7.00671 11.1897C5.64897 12.5475 4.72437 14.2775 4.34983 16.1609C3.97528 18.0442 4.16761 19.9963 4.9025 21.7704C5.63738 23.5444 6.88181 25.0607 8.47843 26.1275C10.0751 27.1943 11.9522 27.7637 13.8724 27.7637C15.7926 27.7637 17.6697 27.1943 19.2663 26.1275C20.863 25.0607 22.1074 23.5444 22.8423 21.7704C23.5772 19.9963 23.7695 18.0442 23.3949 16.1609C23.0204 14.2775 22.0958 12.5475 20.7381 11.1897L20.84 11.051C21.3927 10.3109 21.7887 9.46586 22.0037 8.56753C23.9379 10.2278 25.3173 12.4406 25.9562 14.9083C26.5951 17.376 26.4629 19.9802 25.5774 22.3705C24.6919 24.7608 23.0957 26.8226 21.0033 28.2785C18.9109 29.7345 16.4228 30.5146 13.8738 30.5141C13.466 30.5141 13.0575 30.4885 12.6532 30.4489ZM35.2038 41.6102C34.9084 41.611 34.6156 41.5533 34.3427 41.4402C34.0697 41.3271 33.8219 41.1609 33.6136 40.9513L21.9475 29.2859C23.1727 28.4048 24.2468 27.3307 25.1279 26.1055L36.794 37.7709C37.1085 38.0855 37.3227 38.4862 37.4095 38.9224C37.4962 39.3587 37.4517 39.8108 37.2815 40.2218C37.1113 40.6327 36.823 40.9839 36.4532 41.2311C36.0834 41.4782 35.6486 41.6101 35.2038 41.6102ZM30.4325 8.52384L29.1565 12.9858C29.1161 13.1282 29.1223 13.2798 29.1742 13.4183C29.2261 13.5569 29.321 13.6753 29.4449 13.7561C29.5689 13.8369 29.7155 13.8759 29.8632 13.8675C30.011 13.8591 30.1521 13.8036 30.2661 13.7092L33.9853 10.6106L37.7011 13.7078C37.8151 13.8021 37.9561 13.8575 38.1038 13.8659C38.2514 13.8743 38.3979 13.8354 38.5218 13.7547C38.6457 13.674 38.7406 13.5558 38.7925 13.4173C38.8445 13.2789 38.8509 13.1275 38.8107 12.9851L37.5361 8.52245L40.7151 5.34344C40.8115 5.2465 40.877 5.12326 40.9036 4.98918C40.9301 4.8551 40.9164 4.71617 40.8643 4.58983C40.8121 4.4635 40.7238 4.3554 40.6104 4.2791C40.497 4.20281 40.3635 4.16173 40.2269 4.16102H36.4944L34.6095 0.383507C34.5454 0.27603 34.4545 0.187034 34.3457 0.125231C34.2369 0.0634286 34.1139 0.0309368 33.9888 0.0309368C33.8637 0.0309368 33.7407 0.0634286 33.6319 0.125231C33.5231 0.187034 33.4322 0.27603 33.3681 0.383507L31.4763 4.16102H27.7438C27.6067 4.16105 27.4726 4.20173 27.3586 4.27794C27.2446 4.35414 27.1557 4.46244 27.1032 4.58915C27.0508 4.71585 27.037 4.85527 27.0638 4.98977C27.0905 5.12428 27.1566 5.24784 27.2535 5.34482L30.4325 8.52384ZM31.9048 5.54802C32.0343 5.54873 32.1614 5.51318 32.2717 5.4454C32.382 5.37763 32.4711 5.28033 32.529 5.16451L33.9853 2.24417L35.4417 5.16451C35.4996 5.28033 35.5887 5.37763 35.699 5.4454C35.8093 5.51318 35.9364 5.54873 36.0659 5.54802H38.5528L36.269 7.83173C36.1816 7.91908 36.1191 8.02821 36.088 8.14782C36.057 8.26743 36.0584 8.39318 36.0922 8.51205L36.8606 11.2028L34.4299 9.17643C34.3052 9.07245 34.148 9.01551 33.9857 9.01551C33.8234 9.01551 33.6662 9.07245 33.5415 9.17643L31.1094 11.2028L31.8785 8.51274C31.9124 8.39377 31.9139 8.26789 31.8828 8.14814C31.8517 8.0284 31.7892 7.91915 31.7016 7.83173L29.4179 5.54802H31.9048Z" fill="black"/>
<path d="M42.9482 18.4586C42.8957 18.3319 42.8068 18.2236 42.6927 18.1475C42.5787 18.0713 42.4446 18.0307 42.3074 18.0307H38.575L36.6901 14.2532C36.626 14.1457 36.5351 14.0567 36.4263 13.9949C36.3175 13.9331 36.1945 13.9006 36.0694 13.9006C35.9442 13.9006 35.8213 13.9331 35.7125 13.9949C35.6037 14.0567 35.5128 14.1457 35.4487 14.2532L33.5568 18.0307H29.8244C29.6872 18.0307 29.5532 18.0714 29.4392 18.1476C29.3252 18.2238 29.2363 18.3321 29.1838 18.4588C29.1313 18.5855 29.1176 18.725 29.1443 18.8595C29.1711 18.994 29.2371 19.1175 29.3341 19.2145L32.5138 22.3935L31.2377 26.8555C31.1974 26.9979 31.2036 27.1495 31.2555 27.288C31.3074 27.4266 31.4022 27.545 31.5262 27.6258C31.6502 27.7066 31.7967 27.7456 31.9445 27.7372C32.0922 27.7287 32.2334 27.6733 32.3473 27.5789L36.0659 24.4803L39.7817 27.5775C39.8956 27.6718 40.0367 27.7272 40.1843 27.7356C40.332 27.744 40.4784 27.705 40.6023 27.6244C40.7262 27.5437 40.8211 27.4255 40.8731 27.287C40.9251 27.1486 40.9315 26.9972 40.8913 26.8548L39.6166 22.3922L42.7957 19.2131C42.8928 19.1165 42.9591 18.9933 42.9862 18.859C43.0134 18.7247 43.0002 18.5854 42.9482 18.4586ZM38.3496 21.7014C38.2622 21.7888 38.1997 21.8979 38.1686 22.0175C38.1375 22.1371 38.139 22.2629 38.1728 22.3817L38.9412 25.0725L36.5104 23.0461C36.3858 22.9422 36.2286 22.8852 36.0663 22.8852C35.9039 22.8852 35.7467 22.9422 35.6221 23.0461L33.19 25.0725L33.959 22.3824C33.993 22.2635 33.9945 22.1376 33.9634 22.0178C33.9323 21.8981 33.8697 21.7888 33.7822 21.7014L31.4985 19.4177H33.9854C34.1149 19.4184 34.2419 19.3829 34.3522 19.3151C34.4626 19.2473 34.5517 19.15 34.6096 19.0342L36.0659 16.1139L37.5223 19.0342C37.5801 19.15 37.6693 19.2473 37.7796 19.3151C37.8899 19.3829 38.017 19.4184 38.1464 19.4177H40.6333L38.3496 21.7014ZM2.77708 38.8358H19.4212V40.2228H2.77708V38.8358ZM4.16409 36.0618H18.0341V37.4488H4.16409V36.0618Z" fill="black"/>
</svg>
