<svg width="43" height="43" viewBox="0 0 43 43" fill="none" xmlns="http://www.w3.org/2000/svg">
<path d="M24.2742 19.4194L25.6336 15.3343L27.3258 15.9724C28.4149 16.3746 29.129 17.4082 29.129 18.5663V21.5H13.871V18.5663C13.871 17.4081 14.5852 16.3746 15.6742 15.9723L17.3665 15.3342L18.7258 19.4194L21.5 18.0323L24.2742 19.4194Z" fill="#48CFAD"/>
<path d="M25.6335 15.3342L24.2742 19.4193L21.5 18.0322L23.5806 14.5645L25.6335 15.3342ZM19.4194 14.5645L21.5 18.0322L18.7258 19.4193L17.3665 15.3342L19.4194 14.5645Z" fill="#E6E9ED"/>
<path d="M21.5 13.871C21.93 13.871 22.3392 13.7948 23.5806 13.1775V14.5646L21.5 18.0323L19.4193 14.5646V13.1775C19.995 13.6144 20.7163 13.871 21.5 13.871ZM27.0484 9.01619C27.0484 10.1676 26.1191 11.0968 24.9677 11.0968L24.8984 11.0901C24.9471 10.8679 24.9677 10.639 24.9677 10.4033V6.93555C25.5434 6.93555 26.0635 7.17127 26.4381 7.54587C26.8127 7.92039 27.0484 8.44055 27.0484 9.01619Z" fill="#F0D0B4"/>
<path d="M24.9677 6.93544V10.4032C24.9677 10.6389 24.9471 10.8679 24.8984 11.09C24.7666 11.7696 24.4269 12.3799 23.9552 12.8583C23.8373 12.9762 23.7124 13.0802 23.5806 13.1774C22.3392 13.7947 21.93 13.8709 21.5 13.8709C20.7163 13.8709 19.995 13.6143 19.4194 13.1774C18.7535 12.6711 18.268 11.9359 18.1016 11.09C18.0529 10.8678 18.0323 10.6389 18.0323 10.4032V6.93544H18.1502C19.4064 6.93516 20.6113 6.43627 21.5 5.54834C22.3887 6.43627 23.5935 6.93516 24.8498 6.93544H24.9677Z" fill="#F0D0B4"/>
<path d="M18.0322 10.4033C18.0322 10.639 18.0529 10.868 18.1016 11.0901L18.0322 11.0968C17.4566 11.0968 16.9364 10.8611 16.5619 10.4865C16.1873 10.112 15.9516 9.59184 15.9516 9.01619C15.9516 7.86481 16.8809 6.93555 18.0322 6.93555V10.4033Z" fill="#F0D0B4"/>
<path d="M27.0484 6.24199V9.01618C27.0484 8.44054 26.8127 7.92038 26.438 7.54586C26.0635 7.17117 25.5434 6.93554 24.9677 6.93554H24.8498C23.5935 6.93526 22.3887 6.43637 21.5 5.54844C20.6113 6.43637 19.4064 6.93526 18.1501 6.93554H18.0322C16.8809 6.93554 15.9516 7.86481 15.9516 9.01618V6.24199C15.9516 4.70925 16.5758 3.32215 17.5744 2.31642C18.5801 1.31771 19.9672 0.693604 21.5 0.693604C24.5655 0.693604 27.0484 3.17651 27.0484 6.24199Z" fill="#B27946"/>
<path d="M42.3065 31.2097V35.3709L40.4754 35.8356C40.3852 36.0851 40.2814 36.328 40.1702 36.5708L41.1344 38.1936L38.1936 41.1343L36.5707 40.1703C36.328 40.2813 36.0852 40.3853 35.8356 40.4754L35.371 42.3064H31.2097L30.745 40.4754C30.4955 40.3852 30.2526 40.2814 30.0098 40.1702L28.387 41.1343L25.4463 38.1936L26.4103 36.5707C26.2994 36.328 26.1953 36.0852 26.1053 35.8355L24.2742 35.3709V31.2097L26.1053 30.745C26.1954 30.4955 26.2993 30.2526 26.4104 30.0098L25.4463 28.387L28.387 25.4463L30.0099 26.4103C30.2527 26.2993 30.4954 26.1953 30.7451 26.1052L31.2097 24.2742H35.371L35.8356 26.1052C36.0852 26.1954 36.3281 26.2992 36.5708 26.4104L38.1936 25.4463L41.1344 28.387L40.1703 30.0099C40.2813 30.2526 40.3853 30.4954 40.4754 30.7451L42.3065 31.2097ZM38.1452 33.2903C38.1452 30.6063 35.9744 28.4355 33.2903 28.4355C30.6063 28.4355 28.4355 30.6063 28.4355 33.2903C28.4355 35.9743 30.6063 38.1451 33.2903 38.1451C35.9744 38.1451 38.1452 35.9743 38.1452 33.2903Z" fill="#FCD770"/>
<path d="M33.2903 28.4355C35.9744 28.4355 38.1452 30.6064 38.1452 33.2904C38.1452 35.9744 35.9744 38.1452 33.2903 38.1452C30.6063 38.1452 28.4355 35.9744 28.4355 33.2904C28.4355 30.6064 30.6063 28.4355 33.2903 28.4355ZM35.371 33.2904C35.371 32.139 34.4417 31.2097 33.2903 31.2097C32.1389 31.2097 31.2097 32.139 31.2097 33.2904C31.2097 34.4418 32.1389 35.371 33.2903 35.371C34.4417 35.371 35.371 34.4418 35.371 33.2904Z" fill="#FFEAA7"/>
<path d="M0.693542 25.6614H13.1774V42.3065H0.693542V25.6614Z" fill="#E6E9ED"/>
<path d="M43 35.909V30.6708L40.9935 30.1581C40.9796 30.1243 40.9657 30.0904 40.9512 30.0568L42.0075 28.2766L38.3033 24.5724L36.5231 25.6287C36.4889 25.6141 36.455 25.6003 36.4218 25.5864L35.9091 23.5806H30.6709L30.1582 25.5871C30.1244 25.601 30.0905 25.6148 30.0569 25.6294L28.2767 24.5731L24.5725 28.2773L25.6288 30.0575C25.6142 30.0917 25.6004 30.1256 25.5865 30.1588L23.5807 30.6715V35.9097L25.5872 36.4224C25.601 36.4562 25.6149 36.4901 25.6295 36.5237L24.5732 38.3039L28.2774 42.0081L30.0576 40.9518C30.0918 40.9663 30.1257 40.9802 30.1589 40.9941L30.6716 42.9999H35.9098L36.4225 40.9934C36.4563 40.9795 36.4902 40.9657 36.5237 40.9511L38.304 42.0074L42.0082 38.3032L40.9519 36.523C40.9664 36.4888 40.9803 36.4549 40.9942 36.4217L43 35.909ZM40.2654 38.0848L38.0849 40.2653L36.6026 39.3858L36.269 39.5454C36.0536 39.648 35.8329 39.7394 35.608 39.8193L35.2586 39.9433L34.8328 41.6128H31.7484L31.3227 39.9433L30.9732 39.8193C30.748 39.7401 30.5273 39.6487 30.3122 39.5454L29.9786 39.3858L28.4964 40.2653L26.3158 38.0848L27.1953 36.6025L27.0357 36.2689C26.9331 36.0535 26.8417 35.8328 26.7618 35.6079L26.6378 35.2585L24.9678 34.8327V31.7483L26.6373 31.3226L26.7613 30.9731C26.8405 30.7479 26.9319 30.5272 27.0352 30.3121L27.1947 29.9785L26.3152 28.4963L28.4957 26.3157L29.978 27.1952L30.3116 27.0357C30.5271 26.933 30.7478 26.8416 30.9727 26.7617L31.322 26.6377L31.7479 24.9677H34.8323L35.2579 26.6372L35.6075 26.7612C35.8327 26.8404 36.0533 26.9318 36.2685 27.0351L36.602 27.1946L38.0843 26.3151L40.2648 28.4957L39.3854 29.9779L39.5449 30.3115C39.6476 30.527 39.739 30.7477 39.8189 30.9726L39.9429 31.322L41.6129 31.7478V34.8322L39.9434 35.2578L39.8194 35.6074C39.7402 35.8326 39.6488 36.0532 39.5454 36.2684L39.3859 36.6019L40.2654 38.0848Z" fill="black"/>
<path d="M33.2903 27.7419C30.2309 27.7419 27.7419 30.2309 27.7419 33.2903C27.7419 36.3497 30.2309 38.8387 33.2903 38.8387C36.3497 38.8387 38.8387 36.3497 38.8387 33.2903C38.8387 30.2309 36.3497 27.7419 33.2903 27.7419ZM33.2903 37.4516C30.9953 37.4516 29.129 35.5854 29.129 33.2903C29.129 30.9953 30.9953 29.129 33.2903 29.129C35.5854 29.129 37.4516 30.9953 37.4516 33.2903C37.4516 35.5854 35.5854 37.4516 33.2903 37.4516Z" fill="black"/>
<path d="M33.2903 30.5161C31.7604 30.5161 30.5161 31.7604 30.5161 33.2903C30.5161 34.8203 31.7604 36.0645 33.2903 36.0645C34.8203 36.0645 36.0645 34.8203 36.0645 33.2903C36.0645 31.7604 34.8203 30.5161 33.2903 30.5161ZM33.2903 34.6774C32.5253 34.6774 31.9032 34.0553 31.9032 33.2903C31.9032 32.5253 32.5253 31.9032 33.2903 31.9032C34.0553 31.9032 34.6774 32.5253 34.6774 33.2903C34.6774 34.0553 34.0553 34.6774 33.2903 34.6774ZM17.5643 11.7432C17.7966 12.4243 18.2009 13.0247 18.7258 13.4965V14.0847L15.428 15.3211C14.082 15.8253 13.1774 17.1301 13.1774 18.5677V22.1935H29.8226V18.5677C29.8226 17.1301 28.918 15.8253 27.5726 15.3204L24.2742 14.084V13.4965C24.7991 13.0254 25.2035 12.4249 25.4357 11.7432C26.7426 11.5191 27.7419 10.3853 27.7419 9.01613V6.24194C27.7419 2.80064 24.942 0 21.5 0C18.058 0 15.2581 2.80064 15.2581 6.24194V9.01613C15.2581 10.3853 16.2574 11.5191 17.5643 11.7432ZM22.8871 14.3725L21.5 16.6841L20.1129 14.3725V14.3217C20.5478 14.4764 21.013 14.5645 21.5 14.5645C21.987 14.5645 22.4522 14.4758 22.8871 14.3218V14.3725ZM19.1216 15.4169L20.52 17.7464L19.1308 18.4407L18.2334 15.7497L19.1216 15.4169ZM28.4355 18.5677V20.8065H14.5645V18.5677C14.5645 17.7048 15.107 16.9225 15.9147 16.6194L16.9344 16.2374L18.3208 20.3973L21.5 18.8077L24.6792 20.3973L26.0656 16.2374L27.086 16.6201C27.893 16.9225 28.4355 17.7048 28.4355 18.5677ZM24.7666 15.7498L23.8692 18.4414L22.4801 17.7471L23.8783 15.4169L24.7666 15.7498ZM21.5 13.1774C19.97 13.1774 18.7258 11.9332 18.7258 10.4032V7.58196C19.741 7.47498 20.6991 7.1048 21.5 6.47488C22.3009 7.10549 23.259 7.47498 24.2742 7.58196V10.4032C24.2742 11.9332 23.03 13.1774 21.5 13.1774ZM25.6613 10.2105V7.82236C26.0741 8.06319 26.3548 8.50576 26.3548 9.01682C26.3548 9.52779 26.0741 9.96967 25.6613 10.2105ZM21.5 1.3871C24.1763 1.3871 26.3548 3.56493 26.3548 6.24194V6.62772C25.945 6.38888 25.4753 6.24194 24.9677 6.24194H24.8485C23.7686 6.24194 22.7533 5.82165 21.9903 5.05805L21.5 4.56702L21.0097 5.05805C20.246 5.82165 19.2314 6.24194 18.1515 6.24194H18.0323C17.5247 6.24194 17.055 6.38888 16.6452 6.62772V6.24194C16.6452 3.56493 18.8237 1.3871 21.5 1.3871ZM17.3387 7.82175V10.2099C16.9259 9.96906 16.6452 9.52649 16.6452 9.01544C16.6452 8.50446 16.9259 8.06259 17.3387 7.82175ZM0 43H13.871V24.9677H0V43ZM1.3871 26.3548H12.4839V41.6129H1.3871V26.3548Z" fill="black"/>
<path d="M2.7742 27.7419H11.0968V29.129H2.7742V27.7419ZM2.7742 30.5161H4.1613V31.9031H2.7742V30.5161ZM5.54839 30.5161H11.0968V31.9031H5.54839V30.5161ZM2.7742 33.2902H11.0968V34.6773H2.7742V33.2902ZM2.7742 36.0644H11.0968V37.4515H2.7742V36.0644ZM9.70968 38.8386H11.0968V40.2257H9.70968V38.8386ZM2.7742 38.8386H8.32259V40.2257H2.7742V38.8386ZM18.5226 31.0064L17.5419 30.0257L14.2774 33.2902L17.5419 36.5548L18.5226 35.5741L16.9323 33.9838H22.1936V32.5967H16.9323L18.5226 31.0064ZM7.62904 11.0967C7.62904 10.7147 7.93992 10.4031 8.32259 10.4031H11.5032L9.91289 11.9935L10.8936 12.9741L14.1581 9.7096L10.8936 6.44507L9.91289 7.42575L11.5032 9.01605H8.32259C7.17563 9.01605 6.24194 9.94974 6.24194 11.0967V23.5806H7.62904V11.0967ZM33.2903 11.0967V19.8257L31.7 18.2354L30.7193 19.2161L33.9839 22.4806L37.2484 19.2161L36.2677 18.2354L34.6774 19.8257V11.0967C34.6774 9.94974 33.7437 9.01605 32.5968 9.01605H29.129V10.4031H32.5968C32.9794 10.4031 33.2903 10.7147 33.2903 11.0967Z" fill="black"/>
</svg>
