<svg width="43" height="43" viewBox="0 0 43 43" fill="none" xmlns="http://www.w3.org/2000/svg">
<g clip-path="url(#clip0_0_95)">
<path fill-rule="evenodd" clip-rule="evenodd" d="M35.8462 33.4594C35.2902 31.5865 34.552 29.5843 33.9599 27.7585L36.4904 19.2526L33.6618 7.63584C32.8866 4.45535 35.7009 4.37893 36.5559 6.3492L41.5697 17.9273C42.4323 19.9177 42.5566 21.8939 41.9527 23.9792L39.2014 33.4594H35.8462Z" fill="#FBBD80"/>
<path fill-rule="evenodd" clip-rule="evenodd" d="M37.5183 16.9044C38.0214 14.5839 35.318 13.692 34.652 15.9545L32.1148 24.594C31.6655 26.13 31.621 27.5485 31.9762 29.1073L32.9706 33.4594H37.0111L35.627 25.627L37.5183 16.9044ZM7.15547 33.4594C7.71145 31.5865 8.44967 29.5843 9.04176 27.7585L6.51215 19.2526L9.33906 7.63584C10.1142 4.45535 7.29824 4.37893 6.44496 6.3492L1.42858 17.9264C0.568576 19.9169 0.441759 21.893 1.04813 23.9784L3.79946 33.4594H7.15547Z" fill="#FBBD80"/>
<path fill-rule="evenodd" clip-rule="evenodd" d="M5.48335 16.9044C4.98028 14.5839 7.68374 13.692 8.34805 15.9545L10.8869 24.594C11.3371 26.13 11.3807 27.5485 11.0255 29.1073L10.0311 33.4594H5.99061L7.37468 25.627L5.48335 16.9044Z" fill="#FBBD80"/>
<path fill-rule="evenodd" clip-rule="evenodd" d="M30.6661 37.8828V32.7026C30.6661 32.3264 30.9726 32.0173 31.3489 32.0173H41.2825C41.6588 32.0173 41.9653 32.3264 41.9653 32.7026V37.8828C41.9653 38.2591 41.6588 38.5656 41.2825 38.5656H31.3489C30.9726 38.5656 30.6661 38.2591 30.6661 37.8828Z" fill="#0593FC"/>
<path fill-rule="evenodd" clip-rule="evenodd" d="M32.4188 35.2928C32.4188 34.783 32.832 34.3706 33.341 34.3706C33.8482 34.3706 34.2614 34.7838 34.2614 35.2928C34.2614 35.8 33.8482 36.2132 33.341 36.2132C32.8312 36.2132 32.4188 35.8 32.4188 35.2928Z" fill="#056BB8"/>
<path fill-rule="evenodd" clip-rule="evenodd" d="M12.3356 37.8828V32.7026C12.3356 32.3264 12.0291 32.0173 11.6528 32.0173H1.71916C1.34291 32.0173 1.03384 32.3264 1.03384 32.7026V37.8828C1.03384 38.2591 1.34291 38.5656 1.71916 38.5656H11.6528C12.0282 38.5656 12.3356 38.2591 12.3356 37.8828Z" fill="#0593FC"/>
<path fill-rule="evenodd" clip-rule="evenodd" d="M10.582 35.2928C10.582 34.783 10.1688 34.3706 9.65988 34.3706C9.15261 34.3706 8.73941 34.7838 8.73941 35.2928C8.73941 35.8 9.15261 36.2132 9.65988 36.2132C10.1697 36.2132 10.582 35.8 10.582 35.2928Z" fill="#056BB8"/>
<path fill-rule="evenodd" clip-rule="evenodd" d="M21.5008 23.309C26.6995 23.309 30.9382 19.0703 30.9382 13.8716C30.9382 8.67302 26.6995 4.43433 21.5008 4.43433C16.3022 4.43433 12.0635 8.67302 12.0635 13.8716C12.0635 19.0703 16.3022 23.309 21.5008 23.309Z" fill="#FEA832"/>
<path fill-rule="evenodd" clip-rule="evenodd" d="M21.5008 20.4653C25.1332 20.4653 28.0945 17.504 28.0945 13.8717C28.0945 10.2394 25.1332 7.27808 21.5008 7.27808C17.8685 7.27808 14.9072 10.2394 14.9072 13.8717C14.9064 17.504 17.8677 20.4653 21.5008 20.4653Z" fill="#FFD23B"/>
<path fill-rule="evenodd" clip-rule="evenodd" d="M2.7572 32.0181H1.71916C1.34291 32.0181 1.03384 32.3271 1.03384 32.7034V37.8835C1.03384 38.2598 1.34291 38.5663 1.71916 38.5663H2.7572C2.38095 38.5663 2.07441 38.2598 2.07441 37.8835V32.7034C2.07441 32.3271 2.38095 32.0181 2.7572 32.0181ZM32.386 32.0181H31.348C30.9718 32.0181 30.6652 32.3271 30.6652 32.7034V37.8835C30.6652 38.2598 30.9718 38.5663 31.348 38.5663H32.386C32.0123 38.5663 31.7033 38.2598 31.7033 37.8835V32.7034C31.7041 32.3271 32.0132 32.0181 32.386 32.0181Z" fill="#0584E3"/>
<path fill-rule="evenodd" clip-rule="evenodd" d="M21.5008 4.43433C21.7545 4.43433 22.0081 4.44356 22.2575 4.46456C17.3982 4.85005 13.5744 8.91321 13.5744 13.8716C13.5744 18.8301 17.3982 22.8941 22.2575 23.2787C22.0081 23.2997 21.7545 23.309 21.5008 23.309C16.2888 23.309 12.0635 19.0837 12.0635 13.8716C12.0635 8.65958 16.2879 4.43433 21.5008 4.43433Z" fill="#E5972D"/>
<path d="M41.2818 31.3464H40.5133L42.5987 24.1649C43.2478 21.9267 43.1135 19.7985 42.1863 17.6586L37.1716 6.08389C36.6139 4.79389 35.3004 4.0775 34.1826 4.45291C33.294 4.75105 32.518 5.78574 33.0085 7.79549L34.663 14.5923C34.3867 14.8745 34.1557 15.26 34.007 15.7648L31.469 24.4034C30.9853 26.0453 30.9383 27.5881 31.3204 29.2569L31.7974 31.3464H31.3481C30.6006 31.3464 29.9926 31.9544 29.9926 32.7019V37.882C29.9926 38.6295 30.6006 39.2376 31.3481 39.2376H41.2826C42.0301 39.2376 42.6381 38.6295 42.6381 37.882V32.7019C42.6381 31.9544 42.0301 31.3464 41.2818 31.3464ZM32.6314 28.957C32.298 27.5016 32.3374 26.2149 32.759 24.783L35.297 16.1435C35.3961 15.8068 35.5549 15.5615 35.7489 15.4288C35.7615 15.4213 35.7732 15.4137 35.7858 15.4062C35.9311 15.3188 36.0941 15.2919 36.2654 15.3356C36.6777 15.4406 37.0397 15.9327 36.8592 16.7633L34.9687 25.4834C34.8897 25.8462 35.1207 26.2049 35.4835 26.283C35.8463 26.3619 36.2041 26.131 36.283 25.7681L38.1735 17.048C38.5271 15.4213 37.6486 14.2992 36.598 14.0313C36.3762 13.9751 36.1386 13.9574 35.8992 13.9826L34.3153 7.47551C34.0894 6.54916 34.2053 5.86301 34.6101 5.72695C34.9544 5.61105 35.6078 5.85629 35.937 6.61719L40.9526 18.1919C41.7496 20.0329 41.8663 21.8637 41.307 23.7886L39.1125 31.3455H33.1764L32.6314 28.957ZM41.2927 37.8829C41.2927 37.8879 41.2868 37.8938 41.2818 37.8938H31.3473C31.3422 37.8938 31.3363 37.8879 31.3363 37.8829V32.7027C31.3363 32.6977 31.3422 32.6918 31.3473 32.6918H41.2818C41.2868 32.6918 41.2927 32.6977 41.2927 32.7027V37.8829ZM33.3402 33.6988C32.4617 33.6988 31.7462 34.4135 31.7462 35.2928C31.7462 36.1713 32.4609 36.8868 33.3402 36.8868C34.2187 36.8868 34.9342 36.1721 34.9342 35.2928C34.9342 34.4135 34.2195 33.6988 33.3402 33.6988ZM33.3402 35.5414C33.2033 35.5414 33.0916 35.4297 33.0916 35.2928C33.0916 35.1559 33.2033 35.0442 33.3402 35.0442C33.4771 35.0442 33.5888 35.1559 33.5888 35.2928C33.5888 35.4297 33.4771 35.5414 33.3402 35.5414ZM11.6529 31.3464H11.2036L11.6798 29.2577C12.0619 27.5881 12.0149 26.0461 11.5312 24.4042L8.99314 15.7648C8.84449 15.26 8.61353 14.8745 8.33722 14.5923L9.99172 7.79549C10.4822 5.78574 9.70701 4.75105 8.81762 4.45291C7.69894 4.0775 6.38543 4.79389 5.82861 6.08305L0.813065 17.6586C-0.114122 19.7994 -0.248497 21.9275 0.400702 24.1649L2.48603 31.3464H1.71758C0.970116 31.3464 0.362069 31.9544 0.362069 32.7019V37.882C0.362069 38.6295 0.970116 39.2376 1.71758 39.2376H11.6521C12.3996 39.2376 13.0076 38.6295 13.0076 37.882V32.7019C13.0084 31.9544 12.4004 31.3464 11.6529 31.3464ZM1.69238 23.7895C1.13389 21.8646 1.24978 20.0337 2.0468 18.1928L7.06318 6.61803C7.39156 5.85713 8.04496 5.61273 8.39014 5.72863C8.79494 5.86469 8.91084 6.55084 8.68492 7.47803L7.10098 13.9851C6.86162 13.9591 6.62394 13.9767 6.40223 14.0338C5.35158 14.3018 4.4731 15.4238 4.82668 17.0506L6.71717 25.7707C6.79611 26.1335 7.15389 26.3644 7.5167 26.2855C7.87951 26.2065 8.11047 25.8488 8.03152 25.486L6.14103 16.7642C5.96047 15.9336 6.32244 15.4414 6.7348 15.3364C6.90613 15.2928 7.06906 15.3196 7.21435 15.407C7.22611 15.4146 7.23871 15.4221 7.25047 15.4297C7.44447 15.5624 7.6032 15.8076 7.7023 16.1444L10.2403 24.7847C10.6619 26.2158 10.7014 27.5033 10.368 28.9587L9.82291 31.3472H3.88689L1.69238 23.7895ZM11.663 37.8829C11.663 37.8879 11.6571 37.8938 11.6521 37.8938H1.71842C1.71338 37.8938 1.7075 37.8879 1.7075 37.8829V32.7027C1.7075 32.6977 1.71338 32.6918 1.71842 32.6918H11.6529C11.658 32.6918 11.6638 32.6977 11.6638 32.7027V37.8829H11.663ZM9.65998 33.6988C8.7815 33.6988 8.06596 34.4135 8.06596 35.2928C8.06596 36.1713 8.78066 36.8868 9.65998 36.8868C10.5385 36.8868 11.254 36.1721 11.254 35.2928C11.254 34.4135 10.5385 33.6988 9.65998 33.6988ZM9.65998 35.5414C9.52308 35.5414 9.41139 35.4297 9.41139 35.2928C9.41139 35.1559 9.52308 35.0442 9.65998 35.0442C9.79687 35.0442 9.90857 35.1559 9.90857 35.2928C9.90857 35.4297 9.79687 35.5414 9.65998 35.5414ZM21.5009 3.76172C15.9252 3.76172 11.3892 8.29688 11.3892 13.8709C11.3892 19.4466 15.9252 23.9826 21.5009 23.9826C27.075 23.9826 31.6101 19.4466 31.6101 13.8709C31.611 8.29688 27.0758 3.76172 21.5009 3.76172ZM21.5009 22.638C16.6668 22.638 12.7338 18.7051 12.7338 13.8709C12.7338 9.03846 16.6668 5.10631 21.5009 5.10631C26.3334 5.10631 30.2655 9.03762 30.2655 13.8709C30.2655 18.7051 26.3342 22.638 21.5009 22.638ZM21.5009 6.60711C17.494 6.60711 14.2338 9.8657 14.2338 13.8718C14.2338 17.8787 17.494 21.1389 21.5009 21.1389C25.507 21.1389 28.7656 17.8787 28.7656 13.8718C28.7656 9.8657 25.507 6.60711 21.5009 6.60711ZM21.5009 19.7935C18.2356 19.7935 15.5792 17.1371 15.5792 13.8718C15.5792 10.6081 18.2356 7.95254 21.5009 7.95254C24.7646 7.95254 27.4202 10.6081 27.4202 13.8718C27.421 17.1362 24.7654 19.7935 21.5009 19.7935ZM23.4326 13.9658C23.8634 14.3849 24.07 14.9342 24.0146 15.512C23.9583 16.1041 23.6182 16.6584 23.1059 16.9951C22.8262 17.1782 22.5071 17.3 22.1736 17.3621V17.9786C22.1736 18.3498 21.873 18.6513 21.5009 18.6513C21.1289 18.6513 20.8282 18.3506 20.8282 17.9786V17.2798C20.022 17.0262 19.3829 16.4215 19.0284 15.5741C18.8848 15.2315 19.0469 14.8376 19.3896 14.694C19.7322 14.5504 20.1261 14.7124 20.2697 15.0551C20.5267 15.6682 20.9399 15.9075 21.2414 16.0008C21.6252 16.1183 22.0678 16.0679 22.3693 15.8706C22.5423 15.7572 22.6574 15.575 22.6759 15.3843C22.6918 15.2163 22.6305 15.0627 22.4936 14.93C22.35 14.7897 21.9729 14.7007 21.6084 14.615C21.0205 14.4756 20.2882 14.3026 19.7549 13.7567C19.2989 13.2881 19.1149 12.586 19.2737 11.925C19.4374 11.2456 19.9229 10.7232 20.6057 10.4914C20.6787 10.467 20.7526 10.446 20.8282 10.4276V9.76912C20.8282 9.39791 21.1289 9.09641 21.5009 9.09641C21.873 9.09641 22.1736 9.39707 22.1736 9.76912V10.4024C22.4239 10.4553 22.6616 10.5401 22.8758 10.6577C23.4124 10.9516 23.7727 11.4161 23.918 12.0006C23.9608 12.1738 23.9331 12.3568 23.841 12.5096C23.7488 12.6624 23.5998 12.7723 23.4267 12.8152C23.2535 12.858 23.0704 12.8303 22.9177 12.7382C22.7649 12.6461 22.655 12.4971 22.612 12.3239C22.5583 12.1081 22.4332 11.9494 22.2299 11.8377C21.9099 11.6621 21.4312 11.6336 21.0382 11.7663C20.7308 11.8704 20.6208 12.0821 20.583 12.2408C20.5318 12.4541 20.5855 12.6817 20.7199 12.8194C20.9794 13.0857 21.4354 13.1932 21.9183 13.3074C22.4609 13.4334 23.0227 13.5661 23.4326 13.9658Z" fill="black"/>
</g>
<defs>
<clipPath id="clip0_0_95">
<rect width="43" height="43" fill="white"/>
</clipPath>
</defs>
</svg>
