<svg width="34" height="42" viewBox="0 0 34 42" fill="none" xmlns="http://www.w3.org/2000/svg">
<path d="M12.8375 16.6499H20.5754V25.0003H12.8375V16.6499Z" fill="#F7BE56"/>
<path d="M13.494 41.9994H19.7305C21.4567 36.3313 23.117 23.967 23.117 23.967L20.5256 21.0386L16.7078 23.3108L14.5542 22.7018L11.2873 21.7697C11.2873 21.7697 11.0054 23.1217 11.2873 28.1351C11.4065 30.2556 12.3942 39.0632 13.494 41.9994Z" fill="#D5D6DB"/>
<path d="M10.2901 10.2107C10.8589 10.1189 11.4738 10.9949 11.6639 12.1682C11.854 13.3415 11.5473 14.3679 10.9785 14.4598C10.4097 14.5516 9.79477 13.6756 9.60418 12.5022C9.4136 11.3289 9.72132 10.303 10.2901 10.2107ZM23.1228 10.2107C22.554 10.1189 21.9386 10.9949 21.7485 12.1682C21.5584 13.3415 21.8651 14.3679 22.4339 14.4598C23.0027 14.5516 23.6181 13.6756 23.8082 12.5022C23.9983 11.3289 23.6916 10.303 23.1228 10.2107Z" fill="#FCD462"/>
<path d="M16.6374 1.49097C13.2459 1.49097 10.2431 4.50625 10.4963 11.243C10.6734 15.9626 13.246 19.7944 16.6374 19.7944C20.0288 19.7944 22.7785 15.9656 22.7785 11.243C22.7785 6.52034 20.0289 1.49097 16.6374 1.49097Z" fill="#FCD462"/>
<path d="M23.054 3.49569C22.4584 2.7924 22.7781 0.441696 19.6223 0.251603C17.2866 0.110646 13.3422 -0.966878 10.4808 2.76212C9.98449 3.40734 9.69513 5.09485 9.61125 5.91091C9.39416 8.10358 9.74188 10.3152 10.6213 12.3355C11.5007 14.3557 11.533 7.59395 11.5683 6.70255C11.7201 2.86536 19.606 5.57142 19.9921 5.06716L20.1216 5.05028C20.1216 5.05028 22.0861 6.78742 22.0876 9.18676C22.0891 11.5861 22.7512 12.3356 22.7512 12.3356C22.7513 12.3355 25.3675 6.22757 23.054 3.49569Z" fill="#2F4859"/>
<path d="M22.5715 22.309L20.5748 18.9324L16.7137 23.2515L12.8368 18.9309L10.8406 22.309L13.6493 26.6068L16.7058 23.3111L19.7628 26.6068L22.5715 22.309Z" fill="#EBF0F3"/>
<path d="M17.1395 41.9994C16.066 37.6917 12.8457 28.0891 12.474 25.1995C12.3408 24.136 12.2238 23.0706 12.1231 22.0036C12.0352 21.0516 11.9742 20.4982 11.9742 20.3979C11.4352 21.3504 10.3333 22.0537 9.35545 22.7054C8.05977 23.4991 6.66513 24.1185 5.20755 24.5477C2.69604 25.0499 0.811393 27.1403 0.571271 29.6903C0.381178 31.7346 0.184633 39.7574 0 41.9993H17.1395V41.9994ZM33.4153 41.9994C33.2307 39.759 33.0342 31.7362 32.8441 29.6904C32.605 27.141 30.7223 25.0502 28.2118 24.5463C26.7542 24.1171 25.3595 23.4977 24.0639 22.704C23.0712 22.0523 22.0016 21.4051 21.4749 20.4526C21.4749 20.4526 21.4069 20.9624 21.3191 21.9416C21.2185 23.0174 21.0974 24.0912 20.9558 25.1624C20.588 28.0456 18.2259 37.6701 17.1394 42L33.4153 41.9994Z" fill="#3A556A"/>
<path d="M24.9234 28.8342L24.9204 28.7076C24.8792 26.8385 24.0593 24.0639 23.2716 22.1818C23.8504 24.2168 24.5318 26.7159 24.5254 28.5726C24.0241 28.7637 23.5273 28.9632 23.0309 29.1657L22.8349 29.2456L22.9049 29.4486L23.7352 31.8499C22.5996 33.4917 21.5092 35.1644 20.3993 36.8246C19.2945 38.537 18.1877 40.2494 17.1393 41.9994C18.3802 40.3799 19.5639 38.7201 20.7492 37.0619C21.9066 35.3853 23.0849 33.722 24.2137 32.0256L24.2841 31.9198L24.242 31.8042L23.3982 29.4968C23.8662 29.2982 24.3333 29.0997 24.7964 28.8903L24.9234 28.8342ZM10.1331 31.85L10.9635 29.4487L11.0339 29.2457L10.8354 29.1658C10.3391 28.9638 9.84275 28.7638 9.34146 28.5732C9.34146 26.7021 10.1271 23.9037 10.282 22.0742C9.80006 23.9459 8.98708 26.839 8.94539 28.7077L8.94241 28.8343L9.06749 28.8904C9.53056 29.0998 9.9976 29.2988 10.4651 29.4969L9.62139 31.8043L9.5792 31.9199L9.65017 32.0257C10.7788 33.7221 11.9566 35.3854 13.1146 37.062C14.2994 38.7202 15.4826 40.38 16.7245 41.9995C15.6763 40.2485 14.5695 38.5371 13.464 36.8247C12.3596 35.1645 11.2692 33.4918 10.1331 31.85Z" fill="#3E6B82"/>
<path d="M18.8131 23.3373C18.1892 23.4862 16.524 23.9632 16.524 24.7355C16.524 25.5077 18.1808 26.0487 18.8131 26.1331C21.5291 26.4964 19.9646 25.5072 19.9646 24.7355C19.9646 23.9637 21.274 22.7442 18.8131 23.3373Z" fill="#FE7058"/>
<path d="M14.4466 23.3373C15.0705 23.4862 16.7362 23.9632 16.7362 24.7355C16.7362 25.5077 15.0789 26.0487 14.4466 26.1331C11.7306 26.4964 13.2951 25.5072 13.2951 24.7355C13.2951 23.9637 11.9867 22.7442 14.4466 23.3373Z" fill="#FE7058"/>
<path d="M16.9453 26.0112C17.6777 25.8375 18.1306 25.103 17.9569 24.3705C17.7833 23.6381 17.0487 23.1852 16.3163 23.3589C15.5839 23.5325 15.131 24.2671 15.3047 24.9995C15.4783 25.7319 16.2129 26.1848 16.9453 26.0112Z" fill="#EA6453"/>
</svg>
