<svg width="57" height="58" viewBox="0 0 57 58" fill="none" xmlns="http://www.w3.org/2000/svg">
<path d="M28.328 2.90552C13.9578 2.90552 2.26634 14.5959 2.26634 28.9672C2.26634 43.3385 13.9578 55.0288 28.328 55.0288C42.6981 55.0288 54.3896 43.3385 54.3896 28.9672C54.3896 25.0862 53.5302 21.4029 52.0017 18.0897C50.9535 19.8018 49.3228 21.119 47.3807 21.7502C48.2351 23.9983 48.724 26.4233 48.724 28.9672C48.724 40.2133 39.5741 49.3632 28.328 49.3632C17.0818 49.3632 7.93192 40.2133 7.93192 28.9672C7.93192 17.721 17.0818 8.57109 28.328 8.57109C31.3874 8.57109 34.2799 9.26636 36.8861 10.4788C37.651 8.59783 39.0705 7.05475 40.8609 6.1256C37.1397 4.07466 32.8684 2.90552 28.328 2.90552ZM44.7581 7.43798C43.1053 7.43798 41.5201 8.09457 40.3514 9.26333C39.1826 10.4321 38.526 12.0172 38.526 13.6701C38.526 15.323 39.1826 16.9081 40.3514 18.0769C41.5201 19.2456 43.1053 19.9022 44.7581 19.9022C46.411 19.9022 47.9962 19.2456 49.1649 18.0769C50.3337 16.9081 50.9903 15.323 50.9903 13.6701C50.9903 12.0172 50.3337 10.4321 49.1649 9.26333C47.9962 8.09457 46.411 7.43798 44.7581 7.43798ZM28.328 17.636C25.3228 17.636 22.4407 18.8298 20.3157 20.9548C18.1906 23.0798 16.9968 25.962 16.9968 28.9672C16.9968 31.9724 18.1906 34.8545 20.3157 36.9795C22.4407 39.1045 25.3228 40.2983 28.328 40.2983C31.3332 40.2983 34.2153 39.1045 36.3403 36.9795C38.4653 34.8545 39.6591 31.9724 39.6591 28.9672C39.6591 25.962 38.4653 23.0798 36.3403 20.9548C34.2153 18.8298 31.3332 17.636 28.328 17.636Z" fill="black"/>
</svg>
