<svg width="57" height="58" viewBox="0 0 57 58" fill="none" xmlns="http://www.w3.org/2000/svg">
<path d="M43.304 21.2008C41.635 21.2008 40.2847 22.5511 40.2847 24.2177V34.9115C40.2847 35.7123 40.6028 36.4802 41.169 37.0464C41.7352 37.6127 42.5032 37.9308 43.304 37.9308C44.1047 37.9308 44.8727 37.6127 45.4389 37.0464C46.0051 36.4802 46.3232 35.7123 46.3232 34.9115V24.2177C46.3232 22.5511 44.9729 21.2008 43.304 21.2008ZM13.352 21.2008C11.683 21.2008 10.3327 22.5511 10.3327 24.2177V34.9115C10.3327 35.7123 10.6508 36.4802 11.217 37.0464C11.7832 37.6127 12.5512 37.9308 13.352 37.9308C14.1527 37.9308 14.9207 37.6127 15.4869 37.0464C16.0531 36.4802 16.3712 35.7123 16.3712 34.9115V24.2177C16.3715 23.8212 16.2936 23.4286 16.142 23.0623C15.9903 22.696 15.7679 22.3631 15.4875 22.0829C15.207 21.8027 14.874 21.5805 14.5076 21.4291C14.1411 21.2778 13.7484 21.2002 13.352 21.2008ZM34.3358 12.2091L36.1488 8.93247C36.2018 8.83919 36.2357 8.7363 36.2486 8.6298C36.2615 8.52329 36.2531 8.41528 36.2239 8.31205C36.1947 8.20882 36.1452 8.11242 36.0785 8.02846C36.0117 7.9445 35.9289 7.87465 35.8348 7.82296C35.7411 7.7701 35.6378 7.73641 35.5309 7.72383C35.424 7.71125 35.3157 7.72004 35.2122 7.74969C35.1088 7.77935 35.0122 7.82927 34.9283 7.89656C34.8443 7.96385 34.7745 8.04716 34.723 8.14165L32.8604 11.4938C31.4723 10.939 29.9426 10.6251 28.328 10.6251C26.7133 10.6251 25.1836 10.9367 23.7955 11.4914L21.9329 8.14401C21.8814 8.04952 21.8116 7.96621 21.7277 7.89892C21.6437 7.83163 21.5471 7.78171 21.4437 7.75206C21.3402 7.7224 21.2319 7.71361 21.125 7.72619C21.0181 7.73877 20.9148 7.77247 20.8211 7.82533C20.7275 7.87747 20.6452 7.94756 20.5787 8.03158C20.5123 8.11559 20.4631 8.21189 20.4339 8.31495C20.4048 8.41801 20.3962 8.52581 20.4088 8.63218C20.4213 8.73855 20.4547 8.8414 20.5071 8.93483L22.3201 12.2114C19.0553 14.0716 16.874 17.3978 16.874 21.2008C16.874 21.2268 16.8741 21.2504 16.8788 21.2811C16.8741 21.2952 16.874 21.3118 16.874 21.3259V21.3283H39.7795V21.2008C39.7819 17.3978 37.6006 14.074 34.3358 12.2091ZM23.0401 16.8548C22.9327 16.8541 22.8265 16.8321 22.7275 16.7903C22.6286 16.7485 22.5388 16.6876 22.4634 16.6111C22.3111 16.4566 22.2265 16.2479 22.228 16.031C22.2296 15.814 22.3173 15.6066 22.4718 15.4543C22.6263 15.302 22.8349 15.2173 23.0519 15.2189C23.2688 15.2205 23.4763 15.3081 23.6285 15.4627C23.7808 15.6172 23.8655 15.8258 23.864 16.0428C23.8624 16.2597 23.7747 16.4671 23.6202 16.6194C23.4657 16.7717 23.257 16.8564 23.0401 16.8548ZM33.6158 16.8548C33.4099 16.8392 33.2175 16.7463 33.0772 16.5949C32.9368 16.4434 32.8588 16.2445 32.8588 16.038C32.8588 15.8316 32.9368 15.6327 33.0772 15.4812C33.2175 15.3298 33.4099 15.2369 33.6158 15.2213C33.8324 15.2213 34.0402 15.3073 34.1934 15.4605C34.3466 15.6137 34.4326 15.8214 34.4326 16.038C34.4326 16.2547 34.3466 16.4624 34.1934 16.6156C34.0402 16.7688 33.8324 16.8548 33.6158 16.8548ZM16.874 38.6933C16.874 40.2182 18.1134 41.4576 19.6455 41.4576H21.0288V47.1255C21.0288 47.9263 21.3469 48.6943 21.9131 49.2605C22.4794 49.8267 23.2473 50.1448 24.0481 50.1448C24.8488 50.1448 25.6168 49.8267 26.183 49.2605C26.7493 48.6943 27.0674 47.9263 27.0674 47.1255V41.4576H29.5838V47.1255C29.5838 48.7945 30.9341 50.1424 32.5984 50.1424C34.2721 50.1424 35.6224 48.7945 35.6224 47.1255V41.4576H37.0057C38.5354 41.4576 39.7771 40.2206 39.7771 38.6933V21.9515H16.874V38.6933Z" fill="black"/>
</svg>
