<svg width="67" height="59" viewBox="0 0 67 59" fill="none" xmlns="http://www.w3.org/2000/svg">
<path d="M19.6453 0.491699C17.8601 0.495444 16.1126 1.49777 15.214 3.02685L1.23675 27.0431C0.352074 28.5763 0.352074 30.5803 1.23675 32.1135L15.214 56.1298C16.1127 57.6588 17.8601 58.6614 19.6453 58.6649H47.5996C49.3848 58.6612 51.1322 57.6588 52.0309 56.1298L66.0081 32.1135C66.8928 30.5803 66.8927 28.5763 66.0081 27.0431L52.0309 3.02685C51.1322 1.49777 49.3848 0.495163 47.5996 0.491699H19.6453ZM19.899 14.5415C19.9374 14.5378 19.9776 14.5378 20.0162 14.5415H24.8379C25.0513 14.5459 25.2583 14.6679 25.3649 14.8511L33.5444 29.2687C33.5855 29.34 33.6121 29.4194 33.6221 29.5009C33.6322 29.4194 33.6587 29.3399 33.6999 29.2687L41.8597 14.8511C41.9697 14.6623 42.1864 14.5397 42.4063 14.5415H47.228C47.655 14.5453 47.9747 15.0772 47.7746 15.4511L39.7905 29.5783L47.7746 43.6862C47.9936 44.0622 47.666 44.6188 47.228 44.6151H42.4063C42.1826 44.6132 41.9646 44.4821 41.8597 44.2861L33.6999 29.8686C33.6587 29.7973 33.6322 29.7179 33.6221 29.6364C33.612 29.7179 33.5855 29.7973 33.5444 29.8686L25.3649 44.2861C25.2632 44.4765 25.0551 44.6064 24.8379 44.6151H20.0162C19.5781 44.6188 19.2506 44.0622 19.4696 43.6862L27.4537 29.5783L19.4696 15.4511C19.2782 15.11 19.5117 14.6143 19.899 14.5415Z" fill="black"/>
</svg>
