<svg width="57" height="58" viewBox="0 0 57 58" fill="none" xmlns="http://www.w3.org/2000/svg">
<path d="M46.4224 40.3244C45.7687 41.8482 44.9611 43.3013 44.0122 44.661C42.7445 46.4716 41.7034 47.7227 40.9055 48.4191C39.6662 49.557 38.3348 50.1424 36.9113 50.1754C35.8915 50.1754 34.6593 49.8851 33.224 49.2949C31.784 48.7071 30.462 48.4191 29.251 48.4191C27.9833 48.4191 26.6236 48.7071 25.1671 49.2949C23.7129 49.8851 22.5373 50.1943 21.6379 50.2227C20.2758 50.2817 18.9137 49.6821 17.5563 48.4191C16.6899 47.6637 15.6064 46.3653 14.3057 44.5288C12.9129 42.5718 11.768 40.2937 10.8709 37.7041C9.91013 34.902 9.42856 32.192 9.42856 29.5669C9.42856 26.5618 10.0777 23.9674 11.3785 21.7956C12.3623 20.09 13.7687 18.6664 15.4624 17.6621C17.1325 16.6604 19.039 16.1211 20.9863 16.0994C22.0722 16.0994 23.4957 16.4346 25.2591 17.0956C27.0225 17.7566 28.1556 18.0918 28.649 18.0918C29.022 18.0918 30.2755 17.6975 32.4095 16.9162C34.4232 16.1914 36.1229 15.8916 37.5156 16.0097C41.2927 16.3142 44.1278 17.8014 46.014 20.4831C42.6383 22.5298 40.9693 25.3933 41.0023 29.0688C41.0307 31.9323 42.0717 34.3142 44.1113 36.2051C45.013 37.068 46.0651 37.7585 47.2156 38.2423C46.9654 38.9671 46.701 39.6587 46.4224 40.3244ZM37.7659 6.25781C37.7659 8.50043 36.9444 10.5967 35.3132 12.5348C33.3396 14.8388 30.9554 16.1726 28.3705 15.9625C28.3367 15.6805 28.3201 15.3967 28.3209 15.1126C28.3209 12.9574 29.2557 10.6534 30.9247 8.76719C31.7556 7.81348 32.8132 7.01794 34.0951 6.38528C35.3745 5.76207 36.5832 5.41741 37.721 5.3584C37.7517 5.66056 37.7659 5.96037 37.7659 6.25781Z" fill="#181818"/>
</svg>
