<svg width="58" height="57" viewBox="0 0 58 57" fill="none" xmlns="http://www.w3.org/2000/svg">
<path d="M28.7743 56.7869C13.5525 56.7869 0.643844 43.9295 0.525221 28.6095C0.498635 24.9142 1.20585 21.2505 2.60586 17.8306C4.00586 14.4108 6.07082 11.3028 8.68099 8.68702C11.3084 5.99616 14.4442 3.85415 17.9063 2.38538C21.3684 0.916603 25.0879 0.150348 28.8487 0.131114C32.5415 0.127877 36.1984 0.855367 39.6088 2.27167C43.0192 3.68798 46.1157 5.7651 48.7198 8.38338C51.3663 10.965 53.4762 14.0444 54.9281 17.4445C56.3801 20.8446 57.1454 24.4982 57.1801 28.1952C57.2509 43.8623 44.6609 56.6275 29.0045 56.7869H28.7743ZM28.8628 1.6139C25.299 1.63469 21.7748 2.36313 18.4948 3.75696C15.2148 5.15079 12.2442 7.18223 9.75568 9.73338C7.28024 12.2084 5.32067 15.1501 3.99057 18.3881C2.66047 21.626 1.9863 25.0958 2.00712 28.5962C2.11866 43.1142 14.3528 55.289 28.7663 55.289H28.9593C43.8049 55.1545 55.7539 43.0505 55.6964 28.2031C55.6291 21.1283 52.7415 14.3738 47.6734 9.43593C45.2116 6.95213 42.2813 4.98169 39.0523 3.63882C35.8233 2.29595 32.3599 1.60738 28.8628 1.61302V1.6139ZM6.8804 36.7449V20.1952H10.9065V21.678H8.7704V35.2913H10.9056V36.7741L6.8804 36.7449ZM20.5442 28.3067C20.5442 31.3166 18.7117 33.0446 16.2286 33.0446C13.7455 33.0446 12.091 31.1094 12.091 28.4625C12.091 25.697 13.826 23.7468 16.3614 23.7468C18.8967 23.7468 20.5433 25.7785 20.5433 28.3058L20.5442 28.3067ZM13.8269 28.4395C13.8269 30.272 14.7476 31.7149 16.326 31.7149C17.9044 31.7149 18.81 30.2321 18.81 28.3634C18.81 26.6655 17.9725 25.0641 16.326 25.0641C14.6794 25.0641 13.803 26.6239 13.803 28.4767L13.8269 28.4395ZM21.9473 24.0593C22.7358 23.9232 23.5347 23.8562 24.3348 23.8592C25.2333 23.7707 26.1372 23.9717 26.9153 24.4302C27.5084 24.7799 27.8669 25.4244 27.8492 26.1122C27.8389 26.552 27.6899 26.9773 27.4237 27.3274C27.1574 27.6776 26.7874 27.9348 26.3664 28.0624C27.4243 28.2775 28.1838 29.2079 28.183 30.287C28.1885 30.6416 28.1132 30.9927 27.9629 31.3139C27.8126 31.635 27.5912 31.9178 27.3154 32.1407C26.678 32.7046 25.6175 32.9782 23.978 32.9782C23.304 32.9815 22.6304 32.9419 21.9615 32.8595L21.9473 24.0593ZM23.5788 27.6109H24.4162C25.5494 27.6109 26.1885 27.0771 26.1885 26.3131C26.1885 25.5492 25.5511 25.0738 24.5065 25.0738C24.1938 25.0631 23.8807 25.0854 23.5726 25.1402L23.5788 27.6109ZM23.5788 31.7486C23.8674 31.7787 24.1569 31.791 24.4463 31.7857C25.5086 31.7857 26.4337 31.3856 26.4337 30.3029C26.4337 29.2203 25.529 28.8202 24.395 28.8202H23.5806L23.5788 31.7486ZM31.4132 23.9407H33.0509V29.7833C33.0509 32.2673 31.8497 33.0977 30.0854 33.0977C29.6135 33.0938 29.1454 33.0136 28.6991 32.8604L28.8991 31.5326C29.228 31.6352 29.57 31.6901 29.9145 31.6954C30.8484 31.6954 31.3973 31.2652 31.3973 29.7081L31.4132 23.9407ZM37.7162 28.8122V29.9471H34.3053V28.8131L37.7162 28.8122ZM45.6719 32.6666C44.9345 32.9605 44.1439 33.0968 43.3508 33.0667C40.4958 33.0667 38.7608 31.2785 38.7608 28.5519C38.7271 27.9145 38.8288 27.2772 39.059 26.6819C39.2893 26.0865 39.6429 25.5467 40.0966 25.0977C40.5504 24.6488 41.094 24.301 41.6918 24.0772C42.2896 23.8534 42.928 23.7586 43.565 23.799C44.3269 23.7679 45.0863 23.9045 45.7896 24.1992L45.4355 25.504C44.8779 25.267 44.2771 25.1483 43.6712 25.1552C41.8388 25.1552 40.5197 26.3043 40.5197 28.4696C40.5197 30.4419 41.6838 31.7185 43.6562 31.7185C44.2686 31.728 44.8766 31.6145 45.4444 31.3847L45.6719 32.6666ZM50.8169 20.1509V36.7449H46.7908V35.2621H48.926V21.6426H46.7908V20.1598L50.8169 20.1509Z" fill="#181818"/>
</svg>
