<svg width="57" height="56" viewBox="0 0 57 56" fill="none" xmlns="http://www.w3.org/2000/svg">
<path d="M34.608 55.9281L31.8193 54.6103L30.9782 52.3001C29.2066 52.4954 27.5473 52.4954 25.7752 52.3001L24.934 54.6103L22.1453 55.9281L15.6499 53.564L14.3613 50.7611L15.2018 48.4521C13.7507 47.4827 12.4125 46.3601 11.2137 45.108L9.08696 46.3359L6.10301 45.5531L2.64673 39.5672L3.46059 36.5925L5.58172 35.3677C5.09699 33.7053 4.79513 31.984 4.68417 30.2385L2.2649 29.812L0.483456 27.2948L1.68348 20.4876L4.21929 18.7316L6.63298 19.1574C7.33093 17.57 8.20616 16.0575 9.24069 14.6517L7.66131 12.7692L7.91359 9.6948L13.2083 5.25172L16.2797 5.53685L17.8572 7.41685C19.4167 6.64452 21.0587 6.0476 22.7491 5.63602V3.18142L24.9185 0.989014H31.8305L34.0006 3.18142V5.63602C35.6909 6.04698 37.3323 6.64452 38.8924 7.41685L40.4706 5.53685L43.5425 5.25172L48.8373 9.6948L49.0896 12.7692L47.5096 14.6517C48.5447 16.0575 49.4199 17.57 50.1179 19.1574L52.5316 18.7316L55.0674 20.4876L56.2699 27.2948L54.4866 29.812L52.0685 30.2385C51.957 31.9852 51.6557 33.7059 51.171 35.3677L53.2927 36.5925L54.106 39.5672L50.6503 45.5531L47.667 46.3359L45.5397 45.108C44.3409 46.3601 43.0033 47.4827 41.5516 48.4521L42.3921 50.7611L41.1034 53.564L34.608 55.9281ZM16.5394 52.5989L22.0852 54.6171L23.9664 53.7276L24.9675 50.978L25.4485 51.0406C27.4481 51.2997 29.3058 51.2997 31.3048 51.0406L31.7865 50.978L32.7869 53.7276L34.6681 54.6171L40.2133 52.5989L41.0836 50.7084L40.0831 47.9593L40.4922 47.6978C42.1497 46.6378 43.6597 45.3715 44.98 43.9347L45.3085 43.577L47.8412 45.0392L49.8544 44.5105L52.8049 39.3998L52.2557 37.3928L49.7299 35.9343L49.8755 35.4712C50.46 33.6135 50.7991 31.6722 50.8859 29.6998L50.9069 29.2145L53.788 28.7068L54.9905 27.0084L53.9659 21.1967L52.2545 20.0122L49.3803 20.5192L49.1937 20.0705C48.4455 18.2679 47.4581 16.5621 46.2593 15.0007L45.963 14.6152L47.8443 12.3732L47.6732 10.2991L43.1526 6.50567L41.0805 6.69783L39.2011 8.93796L38.7697 8.71296C37.031 7.80736 35.1789 7.13296 33.2667 6.7096L32.7919 6.60423V3.67978L31.3272 2.20082H25.4262L23.9621 3.67978V6.60361L23.4873 6.70898C21.5738 7.13234 19.7223 7.80612 17.9837 8.71234L17.5522 8.93734L15.6729 6.69721L13.6007 6.50505L9.08014 10.2985L8.90969 12.3725L10.7909 14.6145L10.4946 15.0001C9.29647 16.5609 8.30905 18.2673 7.56027 20.0698L7.37432 20.5186L4.50008 20.0109L2.78867 21.1955L1.76406 27.0072L2.96657 28.7056L5.84825 29.2132L5.86933 29.6992C5.95486 31.6697 6.29516 33.6117 6.87968 35.4706L7.02534 35.9336L4.49884 37.3921L3.94965 39.3992L6.90013 44.5099L8.91341 45.0386L11.4473 43.5776L11.7746 43.934C13.0943 45.3715 14.6042 46.6372 16.2623 47.6971L16.6714 47.9587L15.6698 50.7084L16.5394 52.5989Z" fill="black"/>
<path d="M28.3767 48.4868C22.7398 48.4868 17.3297 46.093 13.535 41.9189C10.1742 38.2221 8.32393 33.4332 8.32393 28.4341C8.32393 17.3766 17.3198 8.38135 28.3767 8.38135C33.0026 8.38135 37.517 9.99543 41.0879 12.9261C45.7529 16.7549 48.4294 22.4073 48.4294 28.4347C48.4294 39.4916 39.4335 48.4868 28.3767 48.4868ZM28.3767 9.59253C17.9874 9.59253 9.53511 18.0448 9.53511 28.4341C9.53511 33.1313 11.2738 37.6314 14.4313 41.1044C17.9973 45.0268 23.0801 47.2756 28.3767 47.2756C38.766 47.2756 47.2182 38.8234 47.2182 28.4341C47.2182 22.7711 44.7035 17.4597 40.3193 13.8621C36.9647 11.1087 32.7231 9.59253 28.3767 9.59253Z" fill="black"/>
<path d="M32.8458 39.2901H20.0998V33.0247H22.1676V23.5366H21.0817V27.1361H15.6586V17.5774H37.2876V27.1361H31.8646V23.5366H30.7786V33.0247H32.8464V39.2901H32.8458ZM21.3116 38.0789H31.6352V34.2358H29.5668V22.3254H33.0751V25.9249H36.0758V18.7886H16.8698V25.9249H19.8705V22.3254H23.3788V34.2358H21.311V38.0789H21.3116Z" fill="black"/>
<path d="M41.0947 39.2902H34.3694V35.8581H35.3735V34.7727H34.3694V31.5693H40.0993V35.8575H41.0947V39.2902ZM35.5806 38.079H39.8829V37.0693H38.8875V32.7811H35.5799V33.5615H36.5841V37.0693H35.5799V38.079H35.5806Z" fill="black"/>
<path d="M37.2635 31.0832C35.8335 31.0832 34.7549 30.3834 34.7549 29.4561C34.7549 28.5282 35.8328 27.8284 37.2635 27.8284C38.6941 27.8284 39.772 28.5282 39.772 29.4561C39.7714 30.3834 38.6934 31.0832 37.2635 31.0832ZM37.2635 29.0396C36.4583 29.0396 36.0027 29.3489 35.9655 29.466C36.0027 29.5627 36.4589 29.872 37.2635 29.872C38.0457 29.872 38.4982 29.5807 38.5577 29.4561C38.4988 29.3315 38.0457 29.0396 37.2635 29.0396Z" fill="black"/>
</svg>
