<svg width="57" height="58" viewBox="0 0 57 58" fill="none" xmlns="http://www.w3.org/2000/svg">
<path d="M40.2259 4.03882H16.4305C9.24543 4.03882 3.39969 9.88456 3.39969 17.0696V40.8651C3.39969 48.0501 9.24543 53.8959 16.4305 53.8959H40.2259C47.411 53.8959 53.2567 48.0501 53.2567 40.8651V17.0696C53.2567 9.88456 47.411 4.03882 40.2259 4.03882ZM44.8887 44.831C44.8887 44.831 43.0191 41.6503 39.8849 41.6503C36.864 41.6503 34.5513 44.831 28.4699 44.831C17.167 44.8298 10.7604 36.4482 9.10152 33.8397C8.97121 33.6346 9.21483 33.408 9.41993 33.5383C14.2266 36.5603 18.8758 38.0323 22.0961 38.0311C26.8064 38.03 29.4613 35.766 29.4613 35.766C25.1226 33.2109 14.7308 21.3188 12.5167 17.9977C12.3638 17.7688 12.638 17.5161 12.8487 17.6929C21.8536 25.2666 26.9855 28.1209 26.9855 28.1209C25.0796 26.521 19.4049 19.0515 17.0447 15.7303C16.8849 15.5059 17.1784 15.2465 17.3801 15.4334C23.8388 21.4389 35.1269 30.1005 35.1269 30.1005C35.8374 28.1016 36.2872 25.7028 36.2578 23.8683C36.1818 19.0311 33.0624 14.2074 31.7695 12.3208C31.6233 12.1077 31.8896 11.8686 32.0992 12.0193C40.5092 18.0611 43.0598 25.6054 43.0587 29.9588C43.0576 33.0862 41.9256 35.0578 41.9256 35.0578C41.9256 35.0578 46.7209 40.2894 44.8887 44.831Z" fill="black"/>
</svg>
