<svg width="57" height="58" viewBox="0 0 57 58" fill="none" xmlns="http://www.w3.org/2000/svg">
<path d="M28.328 31.3987C30.6552 31.3987 32.5418 29.5122 32.5418 27.185C32.5418 24.8578 30.6552 22.9712 28.328 22.9712C26.0008 22.9712 24.1142 24.8578 24.1142 27.185C24.1142 29.5122 26.0008 31.3987 28.328 31.3987Z" fill="black"/>
<path d="M16.5294 35.5629L15.597 35.3245C8.6708 33.5752 4.69781 30.6008 4.69781 27.1755C4.69781 23.7478 8.67316 20.7758 15.597 19.0265L16.5294 18.7904L16.7915 19.7135C17.4915 22.1301 18.3884 24.4852 19.4732 26.7553L19.6738 27.1755L19.4732 27.5957C18.3873 29.869 17.4878 32.2249 16.7915 34.6423L16.5294 35.5629ZM15.1673 21.1747C9.90542 22.6572 6.67368 24.9187 6.67368 27.1755C6.67368 29.4276 9.90306 31.6914 15.1673 33.1716C15.8118 31.1225 16.5908 29.1183 17.4926 27.1755C16.5843 25.2294 15.8074 23.2247 15.1673 21.1747ZM40.1242 35.5629L39.8645 34.6375C39.1626 32.2205 38.265 29.8646 37.1804 27.5933L36.9798 27.1755L37.1804 26.7529C38.2663 24.4843 39.161 22.1261 39.8645 19.7087L40.1242 18.7881L41.0566 19.0242C47.9852 20.7734 51.9558 23.7455 51.9558 27.1755C51.9558 30.6032 47.9828 33.5752 41.0566 35.3245L40.1242 35.5629ZM39.1563 27.1755C40.1006 29.2198 40.8867 31.2311 41.4863 33.1716C46.7505 31.6914 49.9823 29.4276 49.9823 27.1755C49.9823 24.9187 46.7529 22.6596 41.4863 21.1747C40.8425 23.224 40.0641 25.2287 39.1563 27.1755Z" fill="black"/>
<path d="M15.1532 21.1653L14.8935 20.2446C12.9436 13.3798 13.5337 8.46259 16.5153 6.74876C19.4307 5.06089 24.1213 7.05564 29.0338 12.0956L29.7042 12.785L29.0338 13.4719C27.289 15.2865 25.6943 17.2397 24.2653 19.3122L23.9985 19.6946L23.5358 19.7324C21.0231 19.9297 18.5307 20.3316 16.0833 20.9339L15.1532 21.1653ZM18.8877 8.11322C18.3589 8.11322 17.8915 8.22889 17.4973 8.45551C15.5427 9.58155 15.198 13.5026 16.5436 18.7952C18.6469 18.3301 20.7692 17.9973 22.9079 17.8108C24.1461 16.0546 25.4969 14.3805 26.9517 12.7991C23.8758 9.80817 20.9722 8.11322 18.8877 8.11322ZM37.7659 48.2066C34.9614 48.2066 31.3591 46.0914 27.6198 42.253L26.9517 41.5661L27.6198 40.8815C29.3649 39.064 30.9604 37.1085 32.3907 35.0341L32.6551 34.6564L33.113 34.6116C35.6266 34.4177 38.12 34.0174 40.568 33.4147L41.5004 33.1787L41.7625 34.1017C43.7029 40.9617 43.1151 45.8861 40.1383 47.5999C39.4156 48.0096 38.5966 48.219 37.7659 48.2066ZM29.7042 41.5495C32.7778 44.5405 35.6838 46.2378 37.7659 46.2378C38.297 46.2378 38.7644 46.1198 39.1563 45.8955C41.1133 44.7671 41.4603 40.839 40.11 35.5464C38.009 36.0138 35.8844 36.349 33.741 36.5355C32.508 38.2945 31.1595 39.9695 29.7042 41.5495Z" fill="black"/>
<path d="M41.5004 21.1652L40.568 20.9315C38.1201 20.3273 35.6268 19.9254 33.113 19.73L32.6551 19.6898L32.3907 19.3074C30.9623 17.2338 29.3667 15.2805 27.6198 13.4671L26.9517 12.7802L27.6198 12.0956C32.5299 7.05796 37.2182 5.0632 40.1383 6.74871C43.1175 8.46491 43.71 13.3822 41.7625 20.2446L41.5004 21.1652ZM33.741 17.8107C35.993 18.0114 38.1271 18.349 40.11 18.7951C41.4579 13.5025 41.1133 9.5815 39.1563 8.4531C37.2111 7.32707 33.5497 9.05035 29.7042 12.7991C31.1584 14.3807 32.5087 16.0521 33.741 17.8107ZM18.8877 48.2065C18.0571 48.2184 17.2382 48.009 16.5153 47.5999C13.5337 45.886 12.9436 40.9641 14.8911 34.1016L15.1461 33.1786L16.0785 33.4147C18.3542 33.9883 20.8612 34.392 23.5335 34.6115L23.9914 34.6564L24.2582 35.0341C25.684 37.1067 27.2798 39.0637 29.0267 40.8814L29.6972 41.566L29.0267 42.253C25.2898 46.0938 21.6874 48.2065 18.8877 48.2065ZM16.5436 35.5487C15.198 40.8413 15.5427 44.7694 17.4973 45.8978C19.4448 47.0073 23.0944 45.2959 26.9517 41.5495C25.4974 39.9676 24.1467 38.2936 22.9079 36.5378C20.767 36.3485 18.641 36.0181 16.5436 35.5487Z" fill="black"/>
<path d="M28.328 36.7882C26.7062 36.7882 25.0419 36.7198 23.3706 36.5805L22.9079 36.5404L22.6412 36.1579C21.6987 34.8027 20.8119 33.4095 19.9831 31.9819C19.1603 30.5505 18.3957 29.0865 17.6909 27.5935L17.4926 27.1756L17.6909 26.7531C18.3967 25.2612 19.1592 23.7975 19.9831 22.367C20.8022 20.96 21.6969 19.5531 22.6412 18.1886L22.9079 17.8109L23.3706 17.7684C26.6682 17.4922 29.9831 17.4922 33.2806 17.7684L33.7386 17.8133L34.0054 18.191C35.8934 20.9028 37.5516 23.7676 38.9627 26.7554L39.1587 27.178L38.9627 27.5958C37.5555 30.5858 35.8971 33.4509 34.0054 36.1603L33.7386 36.5427L33.2806 36.5829C31.614 36.7174 29.9474 36.7882 28.328 36.7882ZM23.9985 34.6542C26.9139 34.8737 29.742 34.8737 32.6551 34.6542C34.2813 32.2728 35.7269 29.773 36.9798 27.1756C35.7313 24.576 34.2855 22.0758 32.6551 19.6971C29.7738 19.4752 26.8798 19.4752 23.9985 19.6971C22.3667 22.075 20.9208 24.5752 19.6738 27.1756C20.9294 29.7715 22.3749 32.2712 23.9985 34.6542Z" fill="black"/>
</svg>
