<svg width="32" height="32" viewBox="0 0 32 32" fill="none" xmlns="http://www.w3.org/2000/svg">
<path d="M16 13.3334C17.4145 13.3334 18.771 12.7715 19.7712 11.7713C20.7714 10.7711 21.3333 9.41457 21.3333 8.00008C21.3333 6.58559 20.7714 5.22904 19.7712 4.22885C18.771 3.22865 17.4145 2.66675 16 2.66675C14.5855 2.66675 13.229 3.22865 12.2288 4.22885C11.2286 5.22904 10.6667 6.58559 10.6667 8.00008C10.6667 9.41457 11.2286 10.7711 12.2288 11.7713C13.229 12.7715 14.5855 13.3334 16 13.3334ZM7.33333 17.3334C8.21739 17.3334 9.06524 16.9822 9.69036 16.3571C10.3155 15.732 10.6667 14.8841 10.6667 14.0001C10.6667 13.116 10.3155 12.2682 9.69036 11.6431C9.06524 11.0179 8.21739 10.6667 7.33333 10.6667C6.44928 10.6667 5.60143 11.0179 4.97631 11.6431C4.35119 12.2682 4 13.116 4 14.0001C4 14.8841 4.35119 15.732 4.97631 16.3571C5.60143 16.9822 6.44928 17.3334 7.33333 17.3334ZM28 14.0001C28 14.8841 27.6488 15.732 27.0237 16.3571C26.3986 16.9822 25.5507 17.3334 24.6667 17.3334C23.7826 17.3334 22.9348 16.9822 22.3096 16.3571C21.6845 15.732 21.3333 14.8841 21.3333 14.0001C21.3333 13.116 21.6845 12.2682 22.3096 11.6431C22.9348 11.0179 23.7826 10.6667 24.6667 10.6667C25.5507 10.6667 26.3986 11.0179 27.0237 11.6431C27.6488 12.2682 28 13.116 28 14.0001ZM16 14.6667C17.7681 14.6667 19.4638 15.3691 20.714 16.6194C21.9643 17.8696 22.6667 19.5653 22.6667 21.3334V29.3334H9.33333V21.3334C9.33333 19.5653 10.0357 17.8696 11.286 16.6194C12.5362 15.3691 14.2319 14.6667 16 14.6667ZM6.66667 21.3334C6.66667 20.4094 6.8 19.5174 7.05067 18.6747L6.824 18.6934C5.68117 18.8189 4.62489 19.3618 3.85768 20.2181C3.09048 21.0744 2.66637 22.1837 2.66667 23.3334V29.3334H6.66667V21.3334ZM29.3333 29.3334V23.3334C29.3335 22.1446 28.8799 21.0005 28.0652 20.1347C27.2504 19.2689 26.136 18.7468 24.9493 18.6747C25.1987 19.5174 25.3333 20.4094 25.3333 21.3334V29.3334H29.3333Z" fill="white"/>
</svg>
