<svg width="70" height="70" viewBox="0 0 70 70" fill="none" xmlns="http://www.w3.org/2000/svg">
<path d="M48.0561 12.4994C47.7913 11.6107 47.435 10.7519 46.993 9.93672L48.2125 7.96469L43.4405 3.19156L41.4684 4.41219C40.6525 3.97093 39.7934 3.61469 38.9047 3.34906L38.3753 1.09375H31.6247L31.0942 3.34906C30.205 3.61484 29.3464 3.97031 28.5305 4.41219L26.5584 3.19156L21.7864 7.96469L23.0059 9.93672C22.5648 10.7523 22.2086 11.611 21.9428 12.4994L19.6875 13.032V19.8384L21.9439 20.37C22.1222 20.9606 22.3563 21.5381 22.6188 22.1069C24.1153 22.4773 25.4651 23.2912 26.4911 24.4419C27.5171 25.5927 28.1715 27.0265 28.3686 28.5556L28.5305 28.4561C29.3464 28.898 30.205 29.2534 31.0942 29.5192L31.6247 31.7745H38.3753L38.9058 29.5192C39.7946 29.2539 40.6537 28.8976 41.4695 28.4561L41.6314 28.5556C41.8287 27.0265 42.4832 25.5926 43.5092 24.4418C44.5351 23.2909 45.8847 22.4767 47.3813 22.1058C47.6427 21.537 47.8778 20.9595 48.0561 20.3678L50.3125 19.8363V13.0309L48.0561 12.4994ZM35 24.0625C32.9694 24.0625 31.022 23.2559 29.5862 21.82C28.1504 20.3842 27.3438 18.4368 27.3438 16.4062C27.3438 14.3757 28.1504 12.4283 29.5862 10.9925C31.022 9.55664 32.9694 8.75 35 8.75C37.0306 8.75 38.978 9.55664 40.4138 10.9925C41.8496 12.4283 42.6562 14.3757 42.6562 16.4062C42.6562 18.4368 41.8496 20.3842 40.4138 21.82C38.978 23.2559 37.0306 24.0625 35 24.0625Z" fill="#F9DE58"/>
<path d="M35 25.1562C39.8245 25.1562 43.75 21.2308 43.75 16.4062C43.75 11.5817 39.8245 7.65625 35 7.65625C30.1755 7.65625 26.25 11.5817 26.25 16.4062C26.25 21.2308 30.1755 25.1562 35 25.1562ZM35 9.84375C38.6192 9.84375 41.5625 12.787 41.5625 16.4062C41.5625 20.0255 38.6192 22.9688 35 22.9688C31.3808 22.9688 28.4375 20.0255 28.4375 16.4062C28.4375 12.787 31.3808 9.84375 35 9.84375Z" fill="black"/>
<path d="M64.5312 51.4062C64.5312 44.6261 60.0983 38.8697 53.9809 36.8616C55.2038 36.0688 56.2092 34.983 56.9056 33.7028C57.6021 32.4226 57.9675 30.9886 57.9688 29.5312C57.9688 24.7067 54.0433 20.7812 49.2188 20.7812C44.3942 20.7812 40.4688 24.7067 40.4688 29.5312C40.47 30.9882 40.8352 32.4218 41.5313 33.7017C42.2273 34.9817 43.2321 36.0675 44.4544 36.8605C43.6989 37.1063 42.9638 37.4109 42.2559 37.7716C41.4557 36.5822 40.3754 35.6077 39.1102 34.9337C37.845 34.2597 36.4335 33.9069 35 33.9062C33.5667 33.9066 32.1554 34.2592 30.8904 34.9331C29.6253 35.6069 28.5452 36.5812 27.7452 37.7705C27.0367 37.4105 26.3013 37.1062 25.5456 36.8605C26.7678 36.0674 27.7726 34.9816 28.4686 33.7017C29.1646 32.4217 29.5299 30.9882 29.5312 29.5312C29.5312 24.7067 25.6058 20.7812 20.7812 20.7812C15.9567 20.7812 12.0312 24.7067 12.0312 29.5312C12.0325 30.9886 12.3979 32.4226 13.0944 33.7028C13.7908 34.983 14.7962 36.0688 16.0191 36.8616C9.90172 38.8697 5.46875 44.6261 5.46875 51.4062V55.7812H22.4514C20.6515 58.3439 19.6863 61.3996 19.6875 64.5312V68.9062H50.3125V64.5312C50.3125 61.2784 49.2855 58.2641 47.5486 55.7812H64.5312V51.4062ZM51.4062 39.375C51.4062 41.1534 50.4044 42.6562 49.2188 42.6562C48.0331 42.6562 47.0312 41.1534 47.0312 39.375C47.0312 39.0644 47.075 38.757 47.1406 38.4519C47.8253 38.3425 48.5187 38.2812 49.2188 38.2812C49.9286 38.2812 50.6209 38.3534 51.3002 38.4628C51.3636 38.7647 51.4062 39.0688 51.4062 39.375ZM42.6562 29.5312C42.6562 25.912 45.5995 22.9688 49.2188 22.9688C52.838 22.9688 55.7812 25.912 55.7812 29.5312C55.7812 33.1505 52.838 36.0938 49.2188 36.0938C45.5995 36.0938 42.6562 33.1505 42.6562 29.5312ZM35 36.0938C38.6192 36.0938 41.5625 39.037 41.5625 42.6562C41.5625 46.2755 38.6192 49.2188 35 49.2188C31.3808 49.2188 28.4375 46.2755 28.4375 42.6562C28.4375 39.037 31.3808 36.0938 35 36.0938ZM26.25 42.6562C26.25 43.0927 26.2927 43.5192 26.355 43.9392L24.8981 47.145L22.2469 43.832L26.4862 39.5927C26.5792 39.6375 26.6733 39.6791 26.7652 39.7261C26.4265 40.666 26.2523 41.6572 26.25 42.6562ZM14.2188 29.5312C14.2188 25.912 17.162 22.9688 20.7812 22.9688C24.4005 22.9688 27.3438 25.912 27.3438 29.5312C27.3438 33.1505 24.4005 36.0938 20.7812 36.0938C17.162 36.0938 14.2188 33.1505 14.2188 29.5312ZM24.2386 38.7461L20.7812 42.2034L17.3337 38.7559C18.4566 38.4444 19.616 38.2848 20.7812 38.2812C21.957 38.2812 23.1186 38.4409 24.2386 38.7461ZM19.3156 43.8309L16.6644 47.1439L13.6106 40.4261C14.0809 40.1177 14.5753 39.8464 15.085 39.5992L19.3156 43.8309ZM7.65625 51.4062C7.65625 47.6241 9.27391 44.2203 11.8431 41.8228L16.1481 51.2936L20.7812 45.5011L25.4144 51.2936L27.3864 46.9547C28.0808 48.1787 29.0581 49.2187 30.2367 49.9877C28.0088 50.7199 25.9787 51.954 24.3031 53.5948H13.125V47.0323H10.9375V53.5948H7.65625V51.4062ZM35 51.4062C36.9009 51.4062 38.7034 51.8208 40.3364 52.5514L35 65.0289L29.6636 52.5503C31.3418 51.7969 33.1604 51.407 35 51.4062ZM21.875 64.5312C21.875 59.9791 24.2058 55.9639 27.7353 53.6091L33.3419 66.7188H27.3438V60.1562H25.1562V66.7188H21.875V64.5312ZM48.125 66.7188H44.8438V60.1562H42.6562V66.7188H36.6581L42.2647 53.6091C45.7942 55.9639 48.125 59.9791 48.125 64.5312V66.7188ZM62.3438 53.5938H59.0625V47.0312H56.875V53.5938H45.6958C44.02 51.9531 41.99 50.7191 39.7622 49.9866C40.9851 49.1938 41.9904 48.108 42.6869 46.8278C43.3833 45.5476 43.7488 44.1136 43.75 42.6562C43.75 41.6281 43.5619 40.6448 43.2348 39.7272C43.7653 39.4548 44.3133 39.2186 44.8744 39.0228C44.8678 39.1398 44.8438 39.2569 44.8438 39.375C44.8438 42.3905 46.8059 44.8438 49.2188 44.8438C51.6316 44.8438 53.5938 42.3905 53.5938 39.375C53.5938 39.2612 53.5708 39.1497 53.5642 39.0359C58.6688 40.8352 62.3438 45.6936 62.3438 51.4062V53.5938ZM35 20.7812C37.4128 20.7812 39.375 18.8191 39.375 16.4062C39.375 13.9934 37.4128 12.0312 35 12.0312C32.5872 12.0312 30.625 13.9934 30.625 16.4062C30.625 18.8191 32.5872 20.7812 35 20.7812ZM35 14.2188C36.2064 14.2188 37.1875 15.1998 37.1875 16.4062C37.1875 17.6127 36.2064 18.5938 35 18.5938C33.7936 18.5938 32.8125 17.6127 32.8125 16.4062C32.8125 15.1998 33.7936 14.2188 35 14.2188Z" fill="black"/>
</svg>
