<svg width="70" height="70" viewBox="0 0 70 70" fill="none" xmlns="http://www.w3.org/2000/svg">
<g clip-path="url(#clip0_0_335)">
<path d="M34.9999 68.974C53.3689 68.974 68.2598 54.0831 68.2598 35.7141C68.2598 17.3452 53.3689 2.45425 34.9999 2.45425C16.631 2.45425 1.74005 17.3452 1.74005 35.7141C1.74005 54.0831 16.631 68.974 34.9999 68.974Z" fill="white"/>
<path d="M68.2604 35.7136C68.2604 54.0826 53.369 68.974 34.9999 68.974C25.2484 68.974 16.4777 64.7782 10.3939 58.0924C16.1466 62.8506 23.526 65.7085 31.5743 65.7085C49.9433 65.7085 64.8347 50.8171 64.8347 32.448C64.8347 23.8278 61.5555 15.9738 56.1749 10.0651C63.5556 16.1653 68.2604 25.3902 68.2604 35.7136Z" fill="white"/>
<path d="M34.9999 61.3394C49.1524 61.3394 60.6252 49.8666 60.6252 35.7142C60.6252 21.5617 49.1524 10.0889 34.9999 10.0889C20.8475 10.0889 9.37469 21.5617 9.37469 35.7142C9.37469 49.8666 20.8475 61.3394 34.9999 61.3394Z" fill="#F9F3F1"/>
<path d="M59.2826 14.8253L57.1366 3.8635C56.7506 1.89116 54.79 0.645537 52.8403 1.1338C50.9527 1.6066 49.8103 3.52504 50.2941 5.40997L51.6515 10.6995C51.8035 11.292 51.3794 11.8767 50.769 11.9161L45.3194 12.2677C43.3776 12.393 41.9084 14.0745 42.0449 16.0155C42.1858 18.0203 43.9787 19.4974 45.9733 19.2522L57.0597 17.8896C58.5493 17.7063 59.5708 16.2981 59.2826 14.8253Z" fill="#F9DE58"/>
<path d="M57.06 17.8891L45.9732 19.2517C45.8282 19.2694 45.6832 19.2776 45.5409 19.2776C43.7255 19.2776 42.1754 17.874 42.0455 16.0148C42.0209 15.6701 42.0482 15.3335 42.1194 15.012C42.6379 15.904 43.6023 16.4882 44.679 16.4882C44.7994 16.4882 44.9225 16.48 45.0457 16.4649L54.421 15.313C55.681 15.1584 56.5456 13.9668 56.3021 12.7219L54.4867 3.45049C54.276 2.37382 53.5112 1.55434 52.5522 1.21917C52.6466 1.1877 52.7424 1.15897 52.8409 1.13435C54.7904 0.645949 56.7508 1.89089 57.1366 3.86364L59.2831 14.8246C59.5704 16.298 58.5498 17.7057 57.06 17.8891Z" fill="#E0B311"/>
<path d="M36.0261 16.9842V12.9038C36.0261 12.6317 35.918 12.3707 35.7256 12.1783C35.5332 11.9859 35.2722 11.8778 35.0001 11.8778C34.728 11.8778 34.467 11.9859 34.2746 12.1783C34.0821 12.3707 33.974 12.6317 33.974 12.9038V16.9842C33.974 17.2563 34.0821 17.5173 34.2746 17.7097C34.467 17.9022 34.728 18.0103 35.0001 18.0103C35.2722 18.0103 35.5332 17.9022 35.7256 17.7097C35.918 17.5173 36.0261 17.2563 36.0261 16.9842ZM35.0001 59.5505C35.2722 59.5505 35.5332 59.4424 35.7256 59.25C35.918 59.0576 36.0261 58.7966 36.0261 58.5245V54.4441C36.0261 54.172 35.918 53.911 35.7256 53.7185C35.5332 53.5261 35.2722 53.418 35.0001 53.418C34.728 53.418 34.467 53.5261 34.2746 53.7185C34.0821 53.911 33.974 54.172 33.974 54.4441V58.5245C33.974 58.7966 34.0821 59.0576 34.2746 59.25C34.467 59.4424 34.728 59.5505 35.0001 59.5505ZM58.8365 35.7143C58.8365 35.4422 58.7283 35.1812 58.5359 34.9888C58.3435 34.7963 58.0825 34.6882 57.8104 34.6882H53.73C53.1632 34.6882 52.704 35.1476 52.704 35.7143C52.704 36.2809 53.1632 36.7403 53.73 36.7403H57.8104C58.0825 36.7403 58.3435 36.6322 58.5359 36.4398C58.7283 36.2474 58.8365 35.9864 58.8365 35.7143ZM17.2961 35.7143C17.2961 35.4422 17.188 35.1812 16.9955 34.9888C16.8031 34.7963 16.5421 34.6882 16.27 34.6882H12.1896C11.9175 34.6882 11.6565 34.7963 11.4641 34.9888C11.2717 35.1812 11.1636 35.4422 11.1636 35.7143C11.1636 35.9864 11.2717 36.2474 11.4641 36.4398C11.6565 36.6322 11.9175 36.7403 12.1896 36.7403H16.27C16.5421 36.7403 16.8031 36.6322 16.9955 36.4398C17.188 36.2474 17.2961 35.9864 17.2961 35.7143ZM24.379 19.3701C24.4463 19.4869 24.536 19.5892 24.6429 19.6712C24.7498 19.7533 24.8718 19.8135 25.0019 19.8483C25.1321 19.8832 25.2679 19.8921 25.4015 19.8745C25.5351 19.8569 25.6639 19.8131 25.7805 19.7457C26.0162 19.6096 26.1882 19.3855 26.2586 19.1226C26.329 18.8598 26.2921 18.5797 26.1561 18.3441L25.0779 16.4765C24.9409 16.2428 24.717 16.0727 24.455 16.0035C24.1931 15.9342 23.9144 15.9714 23.6797 16.1069C23.4451 16.2423 23.2735 16.4651 23.2025 16.7266C23.1316 16.9881 23.1669 17.267 23.3008 17.5026L24.379 19.3701ZM44.2193 51.6828C43.9837 51.8188 43.8117 52.0429 43.7413 52.3058C43.6709 52.5686 43.7078 52.8487 43.8438 53.0844L44.9221 54.9519C44.9895 55.0686 45.0791 55.1709 45.186 55.253C45.2929 55.335 45.415 55.3952 45.5451 55.43C45.6753 55.4649 45.811 55.4738 45.9446 55.4562C46.0782 55.4386 46.207 55.3948 46.3237 55.3274C46.5594 55.1914 46.7313 54.9673 46.8017 54.7044C46.8722 54.4416 46.8353 54.1615 46.6992 53.9258L45.6209 52.0583C45.4849 51.8226 45.2608 51.6507 44.9979 51.5803C44.7351 51.5098 44.455 51.5467 44.2193 51.6828ZM18.6559 25.0932L16.7884 24.015C16.6716 23.9466 16.5425 23.9019 16.4085 23.8836C16.2744 23.8652 16.138 23.8736 16.0072 23.9082C15.8764 23.9428 15.7537 24.0029 15.6462 24.0851C15.5387 24.1673 15.4485 24.2699 15.3809 24.3871C15.3132 24.5043 15.2694 24.6337 15.252 24.7679C15.2345 24.9021 15.2438 25.0384 15.2793 25.169C15.3147 25.2996 15.3756 25.4219 15.4586 25.5288C15.5415 25.6357 15.6447 25.7252 15.7623 25.7921L17.6299 26.8703C17.7466 26.9377 17.8754 26.9814 18.009 26.999C18.1426 27.0166 18.2783 27.0077 18.4085 26.9728C18.5386 26.938 18.6606 26.8778 18.7675 26.7958C18.8744 26.7137 18.9641 26.6114 19.0315 26.4947C19.1675 26.2591 19.2044 25.979 19.134 25.7162C19.0635 25.4533 18.8916 25.2292 18.6559 25.0932ZM51.3441 46.3353L53.2115 47.4134C53.3282 47.4809 53.457 47.5246 53.5906 47.5423C53.7242 47.5599 53.86 47.551 53.9901 47.5161C54.1203 47.4812 54.2423 47.4211 54.3492 47.339C54.4561 47.2569 54.5458 47.1546 54.6131 47.0379C54.7492 46.8022 54.786 46.5222 54.7156 46.2593C54.6452 45.9965 54.4732 45.7724 54.2376 45.6363L52.3701 44.5581C52.1346 44.4242 51.8557 44.3889 51.5942 44.4599C51.3327 44.5309 51.1099 44.7024 50.9744 44.9371C50.839 45.1717 50.8018 45.4504 50.8711 45.7124C50.9403 45.9743 51.1104 46.1982 51.3441 46.3353ZM16.2763 47.5511C16.4561 47.5511 16.6328 47.5036 16.7884 47.4134L18.6559 46.3353C18.8897 46.1982 19.0597 45.9743 19.129 45.7124C19.1982 45.4504 19.1611 45.1717 19.0256 44.9371C18.8901 44.7024 18.6673 44.5309 18.4058 44.4599C18.1444 44.3889 17.8654 44.4242 17.6299 44.5581L15.7623 45.6363C15.5666 45.7493 15.4136 45.9237 15.3272 46.1325C15.2407 46.3413 15.2256 46.5728 15.2842 46.791C15.3428 47.0093 15.4718 47.2021 15.6512 47.3395C15.8306 47.477 16.0503 47.5513 16.2763 47.5511ZM51.8581 27.0079C52.0379 27.0079 52.2145 26.9604 52.3701 26.8703L54.2376 25.7921C54.4713 25.6551 54.6414 25.4312 54.7106 25.1692C54.7799 24.9073 54.7427 24.6286 54.6072 24.3939C54.4717 24.1593 54.249 23.9877 53.9875 23.9167C53.726 23.8458 53.4471 23.8811 53.2115 24.015L51.3441 25.0932C51.1484 25.2061 50.9954 25.3805 50.9089 25.5893C50.8225 25.7981 50.8074 26.0296 50.866 26.2479C50.9245 26.4661 51.0536 26.6589 51.233 26.7964C51.4123 26.9338 51.6321 27.0082 51.8581 27.0079ZM23.6763 55.3274C23.793 55.3948 23.9218 55.4386 24.0554 55.4562C24.189 55.4738 24.3247 55.4649 24.4549 55.43C24.5851 55.3951 24.7071 55.3349 24.814 55.2529C24.9209 55.1709 25.0105 55.0686 25.0779 54.9519L26.1561 53.0844C26.2921 52.8487 26.329 52.5686 26.2586 52.3058C26.1882 52.0429 26.0162 51.8188 25.7805 51.6828C25.6639 51.6154 25.535 51.5716 25.4015 51.554C25.2679 51.5364 25.1321 51.5453 25.002 51.5802C24.8718 51.615 24.7498 51.6752 24.6429 51.7573C24.536 51.8393 24.4463 51.9416 24.379 52.0583L23.3008 53.9258C23.2334 54.0425 23.1896 54.1713 23.172 54.3049C23.1544 54.4385 23.1633 54.5743 23.1982 54.7044C23.233 54.8346 23.2932 54.9566 23.3753 55.0635C23.4573 55.1704 23.5596 55.2601 23.6763 55.3274ZM34.8079 42.536C34.8079 41.8955 34.3723 41.3574 33.9111 41.3574H26.3781V40.3838C26.3781 37.4372 34.6797 35.6437 34.6797 30.1349C34.6797 27.0602 32.1687 25.0361 29.1966 25.0361C26.4038 25.0361 23.9441 26.8296 23.9441 29.5711C23.9441 30.7241 24.4565 31.0828 25.1739 31.0828C26.0707 31.0828 26.6088 30.5704 26.6088 30.0579C26.6088 28.3156 27.7618 27.5212 29.1966 27.5212C31.1439 27.5212 31.9638 28.956 31.9638 30.2115C31.9638 34.1573 23.5853 36.2328 23.5853 40.3835V42.8689C23.5853 43.4069 24.2772 43.7656 24.7895 43.7656H33.911C34.3723 43.7659 34.8079 43.1765 34.8079 42.536ZM46.133 37.0272H44.8775V33.4913C44.8775 32.8508 44.1857 32.5945 43.5196 32.5945C42.8277 32.5945 42.1615 32.8508 42.1615 33.4913V37.0272H38.3951L43.6732 26.4965C43.7502 26.3428 43.8014 26.2147 43.8014 26.0865C43.8014 25.446 42.9558 25.036 42.4435 25.036C42.0079 25.036 41.5466 25.2409 41.2649 25.779L35.0644 38.0006C34.9619 38.18 34.9106 38.385 34.9106 38.5644C34.9106 39.1793 35.3206 39.5636 35.8585 39.5636H42.1615V42.8689C42.1615 43.4582 42.8277 43.7656 43.5196 43.7656C44.1857 43.7656 44.8775 43.4581 44.8775 42.8689V39.5636H46.133C46.6199 39.5636 47.0553 38.9231 47.0553 38.3081C47.0553 37.6677 46.7479 37.0272 46.133 37.0272Z" fill="black"/>
<path d="M59.7785 12.0183L58.1434 3.66636C57.9021 2.43359 57.1852 1.38346 56.1248 0.709827C55.0644 0.0361908 53.8093 -0.166557 52.591 0.138385C51.411 0.434025 50.4185 1.17223 49.7961 2.21744C49.3827 2.91173 49.1675 3.68523 49.1574 4.47174C44.7677 2.47942 39.9651 1.42834 35.0001 1.42834C25.842 1.42834 17.232 4.99461 10.7563 11.4704C4.28042 17.9461 0.714142 26.5562 0.714142 35.7143C0.714142 40.2896 1.60079 44.7324 3.34972 48.9193C3.4556 49.1689 3.65597 49.3665 3.90707 49.4688C4.15817 49.5711 4.43957 49.5699 4.68977 49.4654C4.93997 49.3609 5.13864 49.1616 5.24235 48.9111C5.34607 48.6606 5.34639 48.3792 5.24326 48.1284C3.59967 44.1934 2.76638 40.0167 2.76638 35.7143C2.76638 27.1042 6.11924 19.0096 12.2074 12.9216C18.2956 6.83357 26.3902 3.48057 35.0001 3.48057C40.1738 3.48057 45.1602 4.69364 49.638 6.98132L50.6427 10.896L45.5175 11.2266C42.2891 9.83469 38.7331 9.06297 35.0001 9.06297C20.3044 9.06297 8.34864 21.0188 8.34864 35.7144C8.34864 50.4099 20.3044 62.3657 35.0001 62.3657C46.4218 62.3657 56.5644 55.1048 60.2394 44.2959L60.2728 44.197C60.3598 43.9391 60.3408 43.6573 60.2201 43.4135C60.0993 43.1696 59.8866 42.9837 59.6288 42.8966C59.5012 42.8535 59.3663 42.8359 59.2318 42.8449C59.0974 42.854 58.966 42.8894 58.8452 42.9492C58.7245 43.009 58.6167 43.092 58.528 43.1935C58.4394 43.2949 58.3716 43.4129 58.3285 43.5406L58.2958 43.6374C54.9045 53.612 45.5427 60.3136 35.0001 60.3136C21.436 60.3136 10.4007 49.2784 10.4007 35.7144C10.4007 22.1503 21.436 11.1151 35.0001 11.1151C37.6519 11.1151 40.206 11.539 42.6008 12.3194C42.4329 12.4633 42.2756 12.6191 42.13 12.7856C41.3297 13.7015 40.936 14.8742 41.0213 16.0874C41.1095 17.3406 41.6918 18.4706 42.6615 19.2696C43.4836 19.9469 44.4861 20.3055 45.532 20.3055C45.7196 20.3055 45.9086 20.294 46.0984 20.2706L47.0704 20.1511C47.3405 20.1179 47.5863 19.9788 47.7538 19.7644C47.9213 19.55 47.9968 19.2778 47.9636 19.0077C47.8944 18.4452 47.3816 18.046 46.82 18.1145L45.848 18.2339C45.1649 18.3179 44.4972 18.1231 43.9664 17.6859C43.4354 17.2485 43.1165 16.6299 43.0684 15.9437C43.0445 15.6171 43.0858 15.2891 43.19 14.9788C43.2943 14.6684 43.4593 14.3819 43.6754 14.136C43.8901 13.8888 44.1519 13.6869 44.4455 13.5419C44.739 13.397 45.0585 13.312 45.3853 13.2918L50.8349 12.9403C51.1288 12.9218 51.4149 12.8385 51.6728 12.6963C51.9307 12.5542 52.1539 12.3567 52.3265 12.1181C52.4998 11.88 52.6182 11.6065 52.6733 11.3172C52.7285 11.0279 52.7189 10.73 52.6453 10.4449L51.2879 5.15536C51.2056 4.83846 51.1872 4.50836 51.2338 4.18429C51.2805 3.86022 51.3911 3.54868 51.5594 3.26784C51.7262 2.98604 51.9473 2.74026 52.2101 2.54484C52.4728 2.34941 52.7718 2.20826 53.0896 2.12961C53.7565 1.96257 54.4439 2.07365 55.0245 2.44248C55.6049 2.81131 55.9974 3.38618 56.1296 4.06118L58.2757 15.023C58.3598 15.4527 58.2646 15.8846 58.0074 16.239C57.7502 16.5935 57.3693 16.8181 56.9347 16.8716L51.5221 17.5365C51.252 17.5697 51.0061 17.7088 50.8386 17.9232C50.6711 18.1376 50.5956 18.4098 50.6287 18.6799C50.6978 19.2425 51.2129 19.6421 51.7722 19.5731L53.3714 19.3767C57.2426 23.7245 59.5994 29.4489 59.5994 35.7147C59.5994 36.8615 59.5197 38.015 59.3625 39.1432C59.3302 39.4102 59.4041 39.6792 59.5682 39.8923C59.7322 40.1054 59.9734 40.2456 60.2398 40.2827C60.5062 40.3199 60.7765 40.2509 60.9925 40.0908C61.2086 39.9306 61.3532 39.6921 61.3951 39.4264C61.5659 38.1965 61.6516 36.9563 61.6517 35.7147C61.6517 29.426 59.46 23.6409 55.8033 19.078L57.1851 18.9083C57.6772 18.8471 58.1515 18.6855 58.5786 18.4337C59.0058 18.1818 59.3767 17.845 59.6685 17.444C60.0244 16.9517 60.2508 16.3778 60.3267 15.7751C64.8023 21.4366 67.2338 28.3879 67.2338 35.7147C67.2338 44.3246 63.8808 52.4193 57.7928 58.5074C51.7046 64.5955 43.6099 67.9484 35.0001 67.9484C29.3147 67.9484 23.7261 66.4483 18.8386 63.6105C14.0945 60.8559 10.1018 56.9088 7.29222 52.1957C7.22324 52.0799 7.13213 51.9788 7.02409 51.8983C6.91605 51.8178 6.79321 51.7593 6.66257 51.7262C6.53193 51.6932 6.39606 51.6862 6.26271 51.7056C6.12937 51.7251 6.00117 51.7707 5.88543 51.8397C5.65171 51.979 5.4829 52.2055 5.41614 52.4693C5.34938 52.7331 5.39015 53.0126 5.52946 53.2463C8.51718 58.2582 12.7631 62.4556 17.808 65.385C23.0082 68.4045 28.9531 70.0005 34.9999 70.0005C44.1579 70.0005 52.768 66.4342 59.2437 59.9585C65.7195 53.4827 69.2857 44.8728 69.2857 35.7147C69.2859 26.8119 65.9151 18.4279 59.7785 12.0183Z" fill="black"/>
</g>
<defs>
<clipPath id="clip0_0_335">
<rect width="70" height="70" fill="white"/>
</clipPath>
</defs>
</svg>
