<svg width="70" height="70" viewBox="0 0 70 70" fill="none" xmlns="http://www.w3.org/2000/svg">
<path d="M63.1641 6.01562H56.6471V4.10156C56.6471 1.83996 54.8071 0 52.5455 0C50.2839 0 48.444 1.83996 48.444 4.10156V6.01562H25.4752V4.10156C25.4752 1.83996 23.6353 0 21.3737 0C19.112 0 17.2721 1.83996 17.2721 4.10156V6.06621C17.1534 6.03297 17.0308 6.01595 16.9076 6.01562H11.4602C7.69084 6.01562 4.62424 9.08223 4.62424 12.8516V36.1393C4.62424 36.8944 5.23646 37.5065 5.99143 37.5065C6.74639 37.5065 7.35861 36.8944 7.35861 36.1393V20.0977H56.6471C57.4021 20.0977 58.0143 19.4856 58.0143 18.7305C58.0143 17.9754 57.4021 17.3633 56.6471 17.3633H7.35861V12.8516C7.35861 10.59 9.19857 8.75 11.4602 8.75H16.9076C17.0341 8.75 17.1559 8.73141 17.2721 8.69941V10.459C17.2721 12.7206 19.112 14.5605 21.3737 14.5605C23.6353 14.5605 25.4752 12.7206 25.4752 10.459V8.75H48.444V10.459C48.444 12.7206 50.2839 14.5605 52.5455 14.5605C54.8071 14.5605 56.6471 12.7206 56.6471 10.459V8.75H63.1641C65.4257 8.75 67.2656 10.59 67.2656 12.8516V64.8039C67.2656 66.1612 66.1613 67.2656 64.8039 67.2656C63.4464 67.2656 62.3421 66.1612 62.3421 64.8039V61.2671C62.3421 60.512 61.7299 59.8999 60.9749 59.8999H45.0717C44.3167 59.8999 43.7045 60.512 43.7045 61.2671C43.7045 62.0222 44.3167 62.6343 45.0717 62.6343H59.6077V64.8039C59.6068 65.6634 59.8204 66.5095 60.2291 67.2656H5.19531C3.83838 67.2656 2.73438 66.1616 2.73438 64.8047V62.6343H33.3354C34.0904 62.6343 34.7026 62.0222 34.7026 61.2671C34.7026 60.512 34.0904 59.8999 33.3354 59.8999H19.6751C22.0641 57.8424 23.5811 54.7991 23.5811 51.4062C23.5811 45.2245 18.5519 40.1953 12.3702 40.1953C6.18844 40.1953 1.15924 45.2245 1.15924 51.4062C1.15924 54.7991 2.67627 57.8424 5.06529 59.8999H1.36719C0.612227 59.8999 0 60.512 0 61.2671V64.8047C0 67.6694 2.33064 70 5.19531 70H64.8039C67.6689 70 70 67.6691 70 64.8039V12.8516C70 9.08223 66.9334 6.01562 63.1641 6.01562ZM22.7408 10.459C22.7408 11.2129 22.1275 11.8262 21.3737 11.8262C20.6198 11.8262 20.0065 11.2129 20.0065 10.459V4.10156C20.0065 3.3477 20.6198 2.73438 21.3737 2.73438C22.1275 2.73438 22.7408 3.3477 22.7408 4.10156V10.459ZM53.9127 10.459C53.9127 11.2129 53.2994 11.8262 52.5455 11.8262C51.7917 11.8262 51.1783 11.2129 51.1783 10.459V4.10156C51.1783 3.3477 51.7917 2.73438 52.5455 2.73438C53.2994 2.73438 53.9127 3.3477 53.9127 4.10156V10.459ZM3.89361 51.4062C3.89361 46.7322 7.69617 42.9297 12.3702 42.9297C17.0442 42.9297 20.8467 46.7322 20.8467 51.4062C20.8467 56.0803 17.0442 59.8828 12.3702 59.8828C7.69617 59.8828 3.89361 56.0803 3.89361 51.4062Z" fill="black"/>
</svg>
