<svg width="37" height="37" viewBox="0 0 37 37" fill="none" xmlns="http://www.w3.org/2000/svg">
<path d="M18.6667 6.16675C20.3243 6.16675 21.914 6.82523 23.0861 7.99733C24.2582 9.16943 24.9167 10.7591 24.9167 12.4167C24.9167 14.0744 24.2582 15.6641 23.0861 16.8362C21.914 18.0083 20.3243 18.6667 18.6667 18.6667C17.0091 18.6667 15.4193 18.0083 14.2472 16.8362C13.0751 15.6641 12.4167 14.0744 12.4167 12.4167C12.4167 10.7591 13.0751 9.16943 14.2472 7.99733C15.4193 6.82523 17.0091 6.16675 18.6667 6.16675ZM18.6667 21.7917C25.5729 21.7917 31.1667 24.5886 31.1667 28.0417V31.1667H6.16666V28.0417C6.16666 24.5886 11.7604 21.7917 18.6667 21.7917Z" fill="black"/>
</svg>
